<svg width="228" height="108" viewBox="0 0 228 108" fill="none" xmlns="http://www.w3.org/2000/svg">
<path d="M228 90H221.998V96H228V90Z" fill="black"/>
<path d="M228 84H221.998V90H228V84Z" fill="black"/>
<path d="M228 78H221.998V84H228V78Z" fill="black"/>
<path d="M228 72H221.998V78H228V72Z" fill="black"/>
<path d="M228 66H221.998V72H228V66Z" fill="black"/>
<path d="M228 60H221.998V66H228V60Z" fill="black"/>
<path d="M228 54H221.998V60H228V54Z" fill="black"/>
<path d="M228 48H221.998V54H228V48Z" fill="black"/>
<path d="M228 42H221.998V48H228V42Z" fill="black"/>
<path d="M228 36H221.998V42H228V36Z" fill="black"/>
<path d="M228 30H221.998V36H228V30Z" fill="black"/>
<path d="M228 24H221.998V30H228V24Z" fill="black"/>
<path d="M228 18H221.998V24H228V18Z" fill="black"/>
<path d="M228 12H221.998V18H228V12Z" fill="black"/>
<path d="M221.999 96H216V102H221.999V96Z" fill="black"/>
<path d="M221.999 90H216V96H221.999V90Z" fill="#7F807A"/>
<path d="M221.999 84H216V90H221.999V84Z" fill="#7F807A"/>
<path d="M221.999 78H216V84H221.999V78Z" fill="#7F807A"/>
<path d="M221.999 72H216V78H221.999V72Z" fill="#7F807A"/>
<path d="M221.999 66H216V72H221.999V66Z" fill="#7F807A"/>
<path d="M221.999 60H216V66H221.999V60Z" fill="#7F807A"/>
<path d="M221.999 54H216V60H221.999V54Z" fill="#7F807A"/>
<path d="M221.999 48H216V54H221.999V48Z" fill="#7F807A"/>
<path d="M221.999 42H216V48H221.999V42Z" fill="#7F807A"/>
<path d="M221.999 36H216V42H221.999V36Z" fill="#7F807A"/>
<path d="M221.999 30H216V36H221.999V30Z" fill="#7F807A"/>
<path d="M221.999 24H216V30H221.999V24Z" fill="#7F807A"/>
<path d="M221.999 18H216V24H221.999V18Z" fill="#7F807A"/>
<path d="M221.999 12H216V18H221.999V12Z" fill="#7F807A"/>
<path d="M221.999 6H216V12H221.999V6Z" fill="black"/>
<path d="M216 102H209.999V108H216V102Z" fill="black"/>
<path d="M216 96H209.999V102H216V96Z" fill="#7F807A"/>
<path d="M216 90H209.999V96H216V90Z" fill="#7F807A"/>
<path d="M216 84H209.999V90H216V84Z" fill="#7F807A"/>
<path d="M216 78H209.999V84H216V78Z" fill="#7F807A"/>
<path d="M216 72H209.999V78H216V72Z" fill="#7F807A"/>
<path d="M216 66H209.999V72H216V66Z" fill="#7F807A"/>
<path d="M216 60H209.999V66H216V60Z" fill="#7F807A"/>
<path d="M216 54H209.999V60H216V54Z" fill="#7F807A"/>
<path d="M216 48H209.999V54H216V48Z" fill="#7F807A"/>
<path d="M216 42H209.999V48H216V42Z" fill="#7F807A"/>
<path d="M216 36H209.999V42H216V36Z" fill="#7F807A"/>
<path d="M216 30H209.999V36H216V30Z" fill="#7F807A"/>
<path d="M216 24H209.999V30H216V24Z" fill="#7F807A"/>
<path d="M216 18H209.999V24H216V18Z" fill="#7F807A"/>
<path d="M216 12H209.999V18H216V12Z" fill="#7F807A"/>
<path d="M216 6H209.999V12H216V6Z" fill="#7F807A"/>
<path d="M216 0H209.999V6H216V0Z" fill="black"/>
<path d="M209.998 102H203.997V108H209.998V102Z" fill="black"/>
<path d="M209.998 96H203.997V102H209.998V96Z" fill="#7F807A"/>
<path d="M209.998 90H203.997V96H209.998V90Z" fill="#7F807A"/>
<path d="M209.998 84H203.997V90H209.998V84Z" fill="#7F807A"/>
<path d="M209.998 78H203.997V84H209.998V78Z" fill="#7F807A"/>
<path d="M209.998 72H203.997V78H209.998V72Z" fill="#7F807A"/>
<path d="M209.998 66H203.997V72H209.998V66Z" fill="#7F807A"/>
<path d="M209.998 60H203.997V66H209.998V60Z" fill="#7F807A"/>
<path d="M209.998 54H203.997V60H209.998V54Z" fill="#7F807A"/>
<path d="M209.998 48H203.997V54H209.998V48Z" fill="#7F807A"/>
<path d="M209.998 42H203.997V48H209.998V42Z" fill="#7F807A"/>
<path d="M209.998 36H203.997V42H209.998V36Z" fill="#7F807A"/>
<path d="M209.998 30H203.997V36H209.998V30Z" fill="#7F807A"/>
<path d="M209.998 24H203.997V30H209.998V24Z" fill="#7F807A"/>
<path d="M209.998 18H203.997V24H209.998V18Z" fill="#7F807A"/>
<path d="M209.998 12H203.997V18H209.998V12Z" fill="#7F807A"/>
<path d="M209.998 6H203.997V12H209.998V6Z" fill="#7F807A"/>
<path d="M209.998 0H203.997V6H209.998V0Z" fill="black"/>
<path d="M203.997 102H197.999V108H203.997V102Z" fill="black"/>
<path d="M203.997 96H197.999V102H203.997V96Z" fill="#7F807A"/>
<path d="M203.997 90H197.999V96H203.997V90Z" fill="#7F807A"/>
<path d="M203.997 84H197.999V90H203.997V84Z" fill="#7F807A"/>
<path d="M203.997 78H197.999V84H203.997V78Z" fill="#7F807A"/>
<path d="M203.997 72H197.999V78H203.997V72Z" fill="#7F807A"/>
<path d="M203.997 66H197.999V72H203.997V66Z" fill="#7F807A"/>
<path d="M203.997 60H197.999V66H203.997V60Z" fill="#7F807A"/>
<path d="M203.997 54H197.999V60H203.997V54Z" fill="#7F807A"/>
<path d="M203.997 48H197.999V54H203.997V48Z" fill="#7F807A"/>
<path d="M203.997 42H197.999V48H203.997V42Z" fill="#7F807A"/>
<path d="M203.997 36H197.999V42H203.997V36Z" fill="#7F807A"/>
<path d="M203.997 30H197.999V36H203.997V30Z" fill="#7F807A"/>
<path d="M203.997 24H197.999V30H203.997V24Z" fill="#7F807A"/>
<path d="M203.997 18H197.999V24H203.997V18Z" fill="#7F807A"/>
<path d="M203.997 12H197.999V18H203.997V12Z" fill="#7F807A"/>
<path d="M203.997 6H197.999V12H203.997V6Z" fill="#7F807A"/>
<path d="M203.997 0H197.999V6H203.997V0Z" fill="black"/>
<path d="M197.999 102H192V108H197.999V102Z" fill="black"/>
<path d="M197.999 96H192V102H197.999V96Z" fill="#7F807A"/>
<path d="M197.999 90H192V96H197.999V90Z" fill="#7F807A"/>
<path d="M197.999 84H192V90H197.999V84Z" fill="#7F807A"/>
<path d="M197.999 78H192V84H197.999V78Z" fill="#7F807A"/>
<path d="M197.999 72H192V78H197.999V72Z" fill="#7F807A"/>
<path d="M197.999 66H192V72H197.999V66Z" fill="#7F807A"/>
<path d="M197.999 60H192V66H197.999V60Z" fill="#7F807A"/>
<path d="M197.999 54H192V60H197.999V54Z" fill="#7F807A"/>
<path d="M197.999 48H192V54H197.999V48Z" fill="#7F807A"/>
<path d="M197.999 42H192V48H197.999V42Z" fill="#7F807A"/>
<path d="M197.999 36H192V42H197.999V36Z" fill="#7F807A"/>
<path d="M197.999 30H192V36H197.999V30Z" fill="#7F807A"/>
<path d="M197.999 24H192V30H197.999V24Z" fill="#7F807A"/>
<path d="M197.999 18H192V24H197.999V18Z" fill="#7F807A"/>
<path d="M197.999 12H192V18H197.999V12Z" fill="#7F807A"/>
<path d="M197.999 6H192V12H197.999V6Z" fill="#7F807A"/>
<path d="M197.999 0H192V6H197.999V0Z" fill="black"/>
<path d="M192 102H185.999V108H192V102Z" fill="black"/>
<path d="M192 96H185.999V102H192V96Z" fill="#7F807A"/>
<path d="M192 90H185.999V96H192V90Z" fill="#7F807A"/>
<path d="M192 84H185.999V90H192V84Z" fill="#7F807A"/>
<path d="M192 78H185.999V84H192V78Z" fill="#7F807A"/>
<path d="M192 72H185.999V78H192V72Z" fill="#7F807A"/>
<path d="M192 66H185.999V72H192V66Z" fill="#7F807A"/>
<path d="M192 60H185.999V66H192V60Z" fill="#7F807A"/>
<path d="M192 54H185.999V60H192V54Z" fill="#7F807A"/>
<path d="M192 48H185.999V54H192V48Z" fill="#7F807A"/>
<path d="M192 42H185.999V48H192V42Z" fill="#7F807A"/>
<path d="M192 36H185.999V42H192V36Z" fill="#7F807A"/>
<path d="M192 30H185.999V36H192V30Z" fill="#7F807A"/>
<path d="M192 24H185.999V30H192V24Z" fill="#7F807A"/>
<path d="M192 18H185.999V24H192V18Z" fill="#7F807A"/>
<path d="M192 12H185.999V18H192V12Z" fill="#7F807A"/>
<path d="M192 6H185.999V12H192V6Z" fill="#7F807A"/>
<path d="M192 0H185.999V6H192V0Z" fill="black"/>
<path d="M185.998 102H179.997V108H185.998V102Z" fill="black"/>
<path d="M185.998 96H179.997V102H185.998V96Z" fill="#7F807A"/>
<path d="M185.998 90H179.997V96H185.998V90Z" fill="#7F807A"/>
<path d="M185.998 84H179.997V90H185.998V84Z" fill="#7F807A"/>
<path d="M185.998 78H179.997V84H185.998V78Z" fill="#7F807A"/>
<path d="M185.998 72H179.997V78H185.998V72Z" fill="#7F807A"/>
<path d="M185.998 66H179.997V72H185.998V66Z" fill="#7F807A"/>
<path d="M185.998 60H179.997V66H185.998V60Z" fill="#7F807A"/>
<path d="M185.998 54H179.997V60H185.998V54Z" fill="#7F807A"/>
<path d="M185.998 48H179.997V54H185.998V48Z" fill="#7F807A"/>
<path d="M185.998 42H179.997V48H185.998V42Z" fill="#7F807A"/>
<path d="M185.998 36H179.997V42H185.998V36Z" fill="#7F807A"/>
<path d="M185.998 30H179.997V36H185.998V30Z" fill="#7F807A"/>
<path d="M185.998 24H179.997V30H185.998V24Z" fill="#7F807A"/>
<path d="M185.998 18H179.997V24H185.998V18Z" fill="#7F807A"/>
<path d="M185.998 12H179.997V18H185.998V12Z" fill="#7F807A"/>
<path d="M185.998 6H179.997V12H185.998V6Z" fill="#7F807A"/>
<path d="M185.998 0H179.997V6H185.998V0Z" fill="black"/>
<path d="M179.997 102H173.999V108H179.997V102Z" fill="black"/>
<path d="M179.997 96H173.999V102H179.997V96Z" fill="#7F807A"/>
<path d="M179.997 90H173.999V96H179.997V90Z" fill="#7F807A"/>
<path d="M179.997 84H173.999V90H179.997V84Z" fill="#7F807A"/>
<path d="M179.997 78H173.999V84H179.997V78Z" fill="#7F807A"/>
<path d="M179.997 72H173.999V78H179.997V72Z" fill="#7F807A"/>
<path d="M179.997 66H173.999V72H179.997V66Z" fill="#7F807A"/>
<path d="M179.997 60H173.999V66H179.997V60Z" fill="#7F807A"/>
<path d="M179.997 54H173.999V60H179.997V54Z" fill="#7F807A"/>
<path d="M179.997 48H173.999V54H179.997V48Z" fill="#7F807A"/>
<path d="M179.997 42H173.999V48H179.997V42Z" fill="#7F807A"/>
<path d="M179.997 36H173.999V42H179.997V36Z" fill="#7F807A"/>
<path d="M179.997 30H173.999V36H179.997V30Z" fill="#7F807A"/>
<path d="M179.997 24H173.999V30H179.997V24Z" fill="#7F807A"/>
<path d="M179.997 18H173.999V24H179.997V18Z" fill="#7F807A"/>
<path d="M179.997 12H173.999V18H179.997V12Z" fill="#7F807A"/>
<path d="M179.997 6H173.999V12H179.997V6Z" fill="#7F807A"/>
<path d="M179.997 0H173.999V6H179.997V0Z" fill="black"/>
<path d="M173.999 102H168V108H173.999V102Z" fill="black"/>
<path d="M173.999 96H168V102H173.999V96Z" fill="#7F807A"/>
<path d="M173.999 90H168V96H173.999V90Z" fill="#7F807A"/>
<path d="M173.999 84H168V90H173.999V84Z" fill="#7F807A"/>
<path d="M173.999 78H168V84H173.999V78Z" fill="#7F807A"/>
<path d="M173.999 72H168V78H173.999V72Z" fill="#7F807A"/>
<path d="M173.999 66H168V72H173.999V66Z" fill="#7F807A"/>
<path d="M173.999 60H168V66H173.999V60Z" fill="#7F807A"/>
<path d="M173.999 54H168V60H173.999V54Z" fill="#7F807A"/>
<path d="M173.999 48H168V54H173.999V48Z" fill="#7F807A"/>
<path d="M173.999 42H168V48H173.999V42Z" fill="#7F807A"/>
<path d="M173.999 36H168V42H173.999V36Z" fill="#7F807A"/>
<path d="M173.999 30H168V36H173.999V30Z" fill="#7F807A"/>
<path d="M173.999 24H168V30H173.999V24Z" fill="#7F807A"/>
<path d="M173.999 18H168V24H173.999V18Z" fill="#7F807A"/>
<path d="M173.999 12H168V18H173.999V12Z" fill="#7F807A"/>
<path d="M173.999 6H168V12H173.999V6Z" fill="#7F807A"/>
<path d="M173.999 0H168V6H173.999V0Z" fill="black"/>
<path d="M168 102H161.998V108H168V102Z" fill="black"/>
<path d="M168 96H161.998V102H168V96Z" fill="#7F807A"/>
<path d="M168 90H161.998V96H168V90Z" fill="#7F807A"/>
<path d="M168 84H161.998V90H168V84Z" fill="#7F807A"/>
<path d="M168 78H161.998V84H168V78Z" fill="#7F807A"/>
<path d="M168 72H161.998V78H168V72Z" fill="#7F807A"/>
<path d="M168 66H161.998V72H168V66Z" fill="#7F807A"/>
<path d="M168 60H161.998V66H168V60Z" fill="#7F807A"/>
<path d="M168 54H161.998V60H168V54Z" fill="#7F807A"/>
<path d="M168 48H161.998V54H168V48Z" fill="#7F807A"/>
<path d="M168 42H161.998V48H168V42Z" fill="#7F807A"/>
<path d="M168 36H161.998V42H168V36Z" fill="#7F807A"/>
<path d="M168 30H161.998V36H168V30Z" fill="#7F807A"/>
<path d="M168 24H161.998V30H168V24Z" fill="#7F807A"/>
<path d="M168 18H161.998V24H168V18Z" fill="#7F807A"/>
<path d="M168 12H161.998V18H168V12Z" fill="#7F807A"/>
<path d="M168 6H161.998V12H168V6Z" fill="#7F807A"/>
<path d="M168 0H161.998V6H168V0Z" fill="black"/>
<path d="M161.999 102H156V108H161.999V102Z" fill="black"/>
<path d="M161.999 96H156V102H161.999V96Z" fill="#7F807A"/>
<path d="M161.999 90H156V96H161.999V90Z" fill="#7F807A"/>
<path d="M161.999 84H156V90H161.999V84Z" fill="#7F807A"/>
<path d="M161.999 78H156V84H161.999V78Z" fill="#7F807A"/>
<path d="M161.999 72H156V78H161.999V72Z" fill="#7F807A"/>
<path d="M161.999 66H156V72H161.999V66Z" fill="#7F807A"/>
<path d="M161.999 60H156V66H161.999V60Z" fill="#7F807A"/>
<path d="M161.999 54H156V60H161.999V54Z" fill="#7F807A"/>
<path d="M161.999 48H156V54H161.999V48Z" fill="#7F807A"/>
<path d="M161.999 42H156V48H161.999V42Z" fill="#7F807A"/>
<path d="M161.999 36H156V42H161.999V36Z" fill="#7F807A"/>
<path d="M161.999 30H156V36H161.999V30Z" fill="#7F807A"/>
<path d="M161.999 24H156V30H161.999V24Z" fill="#7F807A"/>
<path d="M161.999 18H156V24H161.999V18Z" fill="#7F807A"/>
<path d="M161.999 12H156V18H161.999V12Z" fill="#7F807A"/>
<path d="M161.999 6H156V12H161.999V6Z" fill="#7F807A"/>
<path d="M161.999 0H156V6H161.999V0Z" fill="black"/>
<path d="M156 102H149.999V108H156V102Z" fill="black"/>
<path d="M156 96H149.999V102H156V96Z" fill="#7F807A"/>
<path d="M156 90H149.999V96H156V90Z" fill="#7F807A"/>
<path d="M156 84H149.999V90H156V84Z" fill="#7F807A"/>
<path d="M156 78H149.999V84H156V78Z" fill="#7F807A"/>
<path d="M156 72H149.999V78H156V72Z" fill="#7F807A"/>
<path d="M156 66H149.999V72H156V66Z" fill="#7F807A"/>
<path d="M156 60H149.999V66H156V60Z" fill="#7F807A"/>
<path d="M156 54H149.999V60H156V54Z" fill="#7F807A"/>
<path d="M156 48H149.999V54H156V48Z" fill="#7F807A"/>
<path d="M156 42H149.999V48H156V42Z" fill="#7F807A"/>
<path d="M156 36H149.999V42H156V36Z" fill="#7F807A"/>
<path d="M156 30H149.999V36H156V30Z" fill="#7F807A"/>
<path d="M156 24H149.999V30H156V24Z" fill="#7F807A"/>
<path d="M156 18H149.999V24H156V18Z" fill="#7F807A"/>
<path d="M156 12H149.999V18H156V12Z" fill="#7F807A"/>
<path d="M156 6H149.999V12H156V6Z" fill="#7F807A"/>
<path d="M156 0H149.999V6H156V0Z" fill="black"/>
<path d="M149.998 102H144V108H149.998V102Z" fill="black"/>
<path d="M149.998 96H144V102H149.998V96Z" fill="#7F807A"/>
<path d="M149.998 90H144V96H149.998V90Z" fill="#7F807A"/>
<path d="M149.998 84H144V90H149.998V84Z" fill="#7F807A"/>
<path d="M149.998 78H144V84H149.998V78Z" fill="#7F807A"/>
<path d="M149.998 72H144V78H149.998V72Z" fill="#7F807A"/>
<path d="M149.998 66H144V72H149.998V66Z" fill="#7F807A"/>
<path d="M149.998 60H144V66H149.998V60Z" fill="#7F807A"/>
<path d="M149.998 54H144V60H149.998V54Z" fill="#7F807A"/>
<path d="M149.998 48H144V54H149.998V48Z" fill="#7F807A"/>
<path d="M149.998 42H144V48H149.998V42Z" fill="#7F807A"/>
<path d="M149.998 36H144V42H149.998V36Z" fill="#7F807A"/>
<path d="M149.998 30H144V36H149.998V30Z" fill="#7F807A"/>
<path d="M149.998 24H144V30H149.998V24Z" fill="#7F807A"/>
<path d="M149.998 18H144V24H149.998V18Z" fill="#7F807A"/>
<path d="M149.998 12H144V18H149.998V12Z" fill="#7F807A"/>
<path d="M149.998 6H144V12H149.998V6Z" fill="#7F807A"/>
<path d="M149.998 0H144V6H149.998V0Z" fill="black"/>
<path d="M144 102H137.999V108H144V102Z" fill="black"/>
<path d="M144 96H137.999V102H144V96Z" fill="#7F807A"/>
<path d="M144 90H137.999V96H144V90Z" fill="#7F807A"/>
<path d="M144 84H137.999V90H144V84Z" fill="#7F807A"/>
<path d="M144 78H137.999V84H144V78Z" fill="#7F807A"/>
<path d="M144 72H137.999V78H144V72Z" fill="#7F807A"/>
<path d="M144 66H137.999V72H144V66Z" fill="#7F807A"/>
<path d="M144 60H137.999V66H144V60Z" fill="#7F807A"/>
<path d="M144 54H137.999V60H144V54Z" fill="#7F807A"/>
<path d="M144 48H137.999V54H144V48Z" fill="#7F807A"/>
<path d="M144 42H137.999V48H144V42Z" fill="#7F807A"/>
<path d="M144 36H137.999V42H144V36Z" fill="#7F807A"/>
<path d="M144 30H137.999V36H144V30Z" fill="#7F807A"/>
<path d="M144 24H137.999V30H144V24Z" fill="#7F807A"/>
<path d="M144 18H137.999V24H144V18Z" fill="#7F807A"/>
<path d="M144 12H137.999V18H144V12Z" fill="#7F807A"/>
<path d="M144 6H137.999V12H144V6Z" fill="#7F807A"/>
<path d="M144 0H137.999V6H144V0Z" fill="black"/>
<path d="M137.999 102H131.997V108H137.999V102Z" fill="black"/>
<path d="M137.999 96H131.997V102H137.999V96Z" fill="#7F807A"/>
<path d="M137.999 90H131.997V96H137.999V90Z" fill="#7F807A"/>
<path d="M137.999 84H131.997V90H137.999V84Z" fill="#7F807A"/>
<path d="M137.999 78H131.997V84H137.999V78Z" fill="#7F807A"/>
<path d="M137.999 72H131.997V78H137.999V72Z" fill="#7F807A"/>
<path d="M137.999 66H131.997V72H137.999V66Z" fill="#7F807A"/>
<path d="M137.999 60H131.997V66H137.999V60Z" fill="#7F807A"/>
<path d="M137.999 54H131.997V60H137.999V54Z" fill="#7F807A"/>
<path d="M137.999 48H131.997V54H137.999V48Z" fill="#7F807A"/>
<path d="M137.999 42H131.997V48H137.999V42Z" fill="#7F807A"/>
<path d="M137.999 36H131.997V42H137.999V36Z" fill="#7F807A"/>
<path d="M137.999 30H131.997V36H137.999V30Z" fill="#7F807A"/>
<path d="M137.999 24H131.997V30H137.999V24Z" fill="#7F807A"/>
<path d="M137.999 18H131.997V24H137.999V18Z" fill="#7F807A"/>
<path d="M137.999 12H131.997V18H137.999V12Z" fill="#7F807A"/>
<path d="M137.999 6H131.997V12H137.999V6Z" fill="#7F807A"/>
<path d="M137.999 0H131.997V6H137.999V0Z" fill="black"/>
<path d="M131.997 102H125.999V108H131.997V102Z" fill="black"/>
<path d="M131.997 96H125.999V102H131.997V96Z" fill="#7F807A"/>
<path d="M131.997 90H125.999V96H131.997V90Z" fill="#7F807A"/>
<path d="M131.997 84H125.999V90H131.997V84Z" fill="#7F807A"/>
<path d="M131.997 78H125.999V84H131.997V78Z" fill="#7F807A"/>
<path d="M131.997 72H125.999V78H131.997V72Z" fill="#7F807A"/>
<path d="M131.997 66H125.999V72H131.997V66Z" fill="#7F807A"/>
<path d="M131.997 60H125.999V66H131.997V60Z" fill="#7F807A"/>
<path d="M131.997 54H125.999V60H131.997V54Z" fill="#7F807A"/>
<path d="M131.997 48H125.999V54H131.997V48Z" fill="#7F807A"/>
<path d="M131.997 42H125.999V48H131.997V42Z" fill="#7F807A"/>
<path d="M131.997 36H125.999V42H131.997V36Z" fill="#7F807A"/>
<path d="M131.997 30H125.999V36H131.997V30Z" fill="#7F807A"/>
<path d="M131.997 24H125.999V30H131.997V24Z" fill="#7F807A"/>
<path d="M131.997 18H125.999V24H131.997V18Z" fill="#7F807A"/>
<path d="M131.997 12H125.999V18H131.997V12Z" fill="#7F807A"/>
<path d="M131.997 6H125.999V12H131.997V6Z" fill="#7F807A"/>
<path d="M131.997 0H125.999V6H131.997V0Z" fill="black"/>
<path d="M125.998 102H120V108H125.998V102Z" fill="black"/>
<path d="M125.998 96H120V102H125.998V96Z" fill="#7F807A"/>
<path d="M125.998 90H120V96H125.998V90Z" fill="#7F807A"/>
<path d="M125.998 84H120V90H125.998V84Z" fill="#7F807A"/>
<path d="M125.998 78H120V84H125.998V78Z" fill="#7F807A"/>
<path d="M125.998 72H120V78H125.998V72Z" fill="#7F807A"/>
<path d="M125.998 66H120V72H125.998V66Z" fill="#7F807A"/>
<path d="M125.998 60H120V66H125.998V60Z" fill="#7F807A"/>
<path d="M125.998 54H120V60H125.998V54Z" fill="#7F807A"/>
<path d="M125.998 48H120V54H125.998V48Z" fill="#7F807A"/>
<path d="M125.998 42H120V48H125.998V42Z" fill="#7F807A"/>
<path d="M125.998 36H120V42H125.998V36Z" fill="#7F807A"/>
<path d="M125.998 30H120V36H125.998V30Z" fill="#7F807A"/>
<path d="M125.998 24H120V30H125.998V24Z" fill="#7F807A"/>
<path d="M125.998 18H120V24H125.998V18Z" fill="#7F807A"/>
<path d="M125.998 12H120V18H125.998V12Z" fill="#7F807A"/>
<path d="M125.998 6H120V12H125.998V6Z" fill="#7F807A"/>
<path d="M125.998 0H120V6H125.998V0Z" fill="black"/>
<path d="M120 102H113.998V108H120V102Z" fill="black"/>
<path d="M120 96H113.998V102H120V96Z" fill="#7F807A"/>
<path d="M120 90H113.998V96H120V90Z" fill="#7F807A"/>
<path d="M120 84H113.998V90H120V84Z" fill="#7F807A"/>
<path d="M120 78H113.998V84H120V78Z" fill="#7F807A"/>
<path d="M120 72H113.998V78H120V72Z" fill="#7F807A"/>
<path d="M120 66H113.998V72H120V66Z" fill="#7F807A"/>
<path d="M120 60H113.998V66H120V60Z" fill="#7F807A"/>
<path d="M120 54H113.998V60H120V54Z" fill="#7F807A"/>
<path d="M120 48H113.998V54H120V48Z" fill="#7F807A"/>
<path d="M120 42H113.998V48H120V42Z" fill="#7F807A"/>
<path d="M120 36H113.998V42H120V36Z" fill="#7F807A"/>
<path d="M120 30H113.998V36H120V30Z" fill="#7F807A"/>
<path d="M120 24H113.998V30H120V24Z" fill="#7F807A"/>
<path d="M120 18H113.998V24H120V18Z" fill="#7F807A"/>
<path d="M120 12H113.998V18H120V12Z" fill="#7F807A"/>
<path d="M120 6H113.998V12H120V6Z" fill="#7F807A"/>
<path d="M120 0H113.998V6H120V0Z" fill="black"/>
<path d="M113.998 102H107.997V108H113.998V102Z" fill="black"/>
<path d="M113.998 96H107.997V102H113.998V96Z" fill="#7F807A"/>
<path d="M113.998 90H107.997V96H113.998V90Z" fill="#7F807A"/>
<path d="M113.998 84H107.997V90H113.998V84Z" fill="#7F807A"/>
<path d="M113.998 78H107.997V84H113.998V78Z" fill="#7F807A"/>
<path d="M113.998 72H107.997V78H113.998V72Z" fill="#7F807A"/>
<path d="M113.998 66H107.997V72H113.998V66Z" fill="#7F807A"/>
<path d="M113.998 60H107.997V66H113.998V60Z" fill="#7F807A"/>
<path d="M113.998 54H107.997V60H113.998V54Z" fill="#7F807A"/>
<path d="M113.998 48H107.997V54H113.998V48Z" fill="#7F807A"/>
<path d="M113.998 42H107.997V48H113.998V42Z" fill="#7F807A"/>
<path d="M113.998 36H107.997V42H113.998V36Z" fill="#7F807A"/>
<path d="M113.998 30H107.997V36H113.998V30Z" fill="#7F807A"/>
<path d="M113.998 24H107.997V30H113.998V24Z" fill="#7F807A"/>
<path d="M113.998 18H107.997V24H113.998V18Z" fill="#7F807A"/>
<path d="M113.998 12H107.997V18H113.998V12Z" fill="#7F807A"/>
<path d="M113.998 6H107.997V12H113.998V6Z" fill="#7F807A"/>
<path d="M113.998 0H107.997V6H113.998V0Z" fill="black"/>
<path d="M107.997 102H101.998V108H107.997V102Z" fill="black"/>
<path d="M107.997 96H101.998V102H107.997V96Z" fill="#7F807A"/>
<path d="M107.997 90H101.998V96H107.997V90Z" fill="#7F807A"/>
<path d="M107.997 84H101.998V90H107.997V84Z" fill="#7F807A"/>
<path d="M107.997 78H101.998V84H107.997V78Z" fill="#7F807A"/>
<path d="M107.997 72H101.998V78H107.997V72Z" fill="#7F807A"/>
<path d="M107.997 66H101.998V72H107.997V66Z" fill="#7F807A"/>
<path d="M107.997 60H101.998V66H107.997V60Z" fill="#7F807A"/>
<path d="M107.997 54H101.998V60H107.997V54Z" fill="#7F807A"/>
<path d="M107.997 48H101.998V54H107.997V48Z" fill="#7F807A"/>
<path d="M107.997 42H101.998V48H107.997V42Z" fill="#7F807A"/>
<path d="M107.997 36H101.998V42H107.997V36Z" fill="#7F807A"/>
<path d="M107.997 30H101.998V36H107.997V30Z" fill="#7F807A"/>
<path d="M107.997 24H101.998V30H107.997V24Z" fill="#7F807A"/>
<path d="M107.997 18H101.998V24H107.997V18Z" fill="#7F807A"/>
<path d="M107.997 12H101.998V18H107.997V12Z" fill="#7F807A"/>
<path d="M107.997 6H101.998V12H107.997V6Z" fill="#7F807A"/>
<path d="M107.997 0H101.998V6H107.997V0Z" fill="black"/>
<path d="M101.998 102H96V108H101.998V102Z" fill="black"/>
<path d="M101.998 96H96V102H101.998V96Z" fill="#7F807A"/>
<path d="M101.998 90H96V96H101.998V90Z" fill="#7F807A"/>
<path d="M101.998 84H96V90H101.998V84Z" fill="#7F807A"/>
<path d="M101.998 78H96V84H101.998V78Z" fill="#7F807A"/>
<path d="M101.998 72H96V78H101.998V72Z" fill="#7F807A"/>
<path d="M101.998 66H96V72H101.998V66Z" fill="#7F807A"/>
<path d="M101.998 60H96V66H101.998V60Z" fill="#7F807A"/>
<path d="M101.998 54H96V60H101.998V54Z" fill="#7F807A"/>
<path d="M101.998 48H96V54H101.998V48Z" fill="#7F807A"/>
<path d="M101.998 42H96V48H101.998V42Z" fill="#7F807A"/>
<path d="M101.998 36H96V42H101.998V36Z" fill="#7F807A"/>
<path d="M101.998 30H96V36H101.998V30Z" fill="#7F807A"/>
<path d="M101.998 24H96V30H101.998V24Z" fill="#7F807A"/>
<path d="M101.998 18H96V24H101.998V18Z" fill="#7F807A"/>
<path d="M101.998 12H96V18H101.998V12Z" fill="#7F807A"/>
<path d="M101.998 6H96V12H101.998V6Z" fill="#7F807A"/>
<path d="M101.998 0H96V6H101.998V0Z" fill="black"/>
<path d="M96 102H89.9985V108H96V102Z" fill="black"/>
<path d="M96 96H89.9985V102H96V96Z" fill="#7F807A"/>
<path d="M96 90H89.9985V96H96V90Z" fill="#7F807A"/>
<path d="M96 84H89.9985V90H96V84Z" fill="#7F807A"/>
<path d="M96 78H89.9985V84H96V78Z" fill="#7F807A"/>
<path d="M96 72H89.9985V78H96V72Z" fill="#7F807A"/>
<path d="M96 66H89.9985V72H96V66Z" fill="#7F807A"/>
<path d="M96 60H89.9985V66H96V60Z" fill="#7F807A"/>
<path d="M96 54H89.9985V60H96V54Z" fill="#7F807A"/>
<path d="M96 48H89.9985V54H96V48Z" fill="#7F807A"/>
<path d="M96 42H89.9985V48H96V42Z" fill="#7F807A"/>
<path d="M96 36H89.9985V42H96V36Z" fill="#7F807A"/>
<path d="M96 30H89.9985V36H96V30Z" fill="#7F807A"/>
<path d="M96 24H89.9985V30H96V24Z" fill="#7F807A"/>
<path d="M96 18H89.9985V24H96V18Z" fill="#7F807A"/>
<path d="M96 12H89.9985V18H96V12Z" fill="#7F807A"/>
<path d="M96 6H89.9985V12H96V6Z" fill="#7F807A"/>
<path d="M96 0H89.9985V6H96V0Z" fill="black"/>
<path d="M89.9985 102H83.997V108H89.9985V102Z" fill="black"/>
<path d="M89.9985 96H83.997V102H89.9985V96Z" fill="#7F807A"/>
<path d="M89.9985 90H83.997V96H89.9985V90Z" fill="#7F807A"/>
<path d="M89.9985 84H83.997V90H89.9985V84Z" fill="#7F807A"/>
<path d="M89.9985 78H83.997V84H89.9985V78Z" fill="#7F807A"/>
<path d="M89.9985 72H83.997V78H89.9985V72Z" fill="#7F807A"/>
<path d="M89.9985 66H83.997V72H89.9985V66Z" fill="#7F807A"/>
<path d="M89.9985 60H83.997V66H89.9985V60Z" fill="#7F807A"/>
<path d="M89.9985 54H83.997V60H89.9985V54Z" fill="#7F807A"/>
<path d="M89.9985 48H83.997V54H89.9985V48Z" fill="#7F807A"/>
<path d="M89.9985 42H83.997V48H89.9985V42Z" fill="#7F807A"/>
<path d="M89.9985 36H83.997V42H89.9985V36Z" fill="#7F807A"/>
<path d="M89.9985 30H83.997V36H89.9985V30Z" fill="#7F807A"/>
<path d="M89.9985 24H83.997V30H89.9985V24Z" fill="#7F807A"/>
<path d="M89.9985 18H83.997V24H89.9985V18Z" fill="#7F807A"/>
<path d="M89.9985 12H83.997V18H89.9985V12Z" fill="#7F807A"/>
<path d="M89.9985 6H83.997V12H89.9985V6Z" fill="#7F807A"/>
<path d="M89.9985 0H83.997V6H89.9985V0Z" fill="black"/>
<path d="M83.997 102H77.9985V108H83.997V102Z" fill="black"/>
<path d="M83.997 96H77.9985V102H83.997V96Z" fill="#7F807A"/>
<path d="M83.997 90H77.9985V96H83.997V90Z" fill="#7F807A"/>
<path d="M83.997 84H77.9985V90H83.997V84Z" fill="#7F807A"/>
<path d="M83.997 78H77.9985V84H83.997V78Z" fill="#7F807A"/>
<path d="M83.997 72H77.9985V78H83.997V72Z" fill="#7F807A"/>
<path d="M83.997 66H77.9985V72H83.997V66Z" fill="#7F807A"/>
<path d="M83.997 60H77.9985V66H83.997V60Z" fill="#7F807A"/>
<path d="M83.997 54H77.9985V60H83.997V54Z" fill="#7F807A"/>
<path d="M83.997 48H77.9985V54H83.997V48Z" fill="#7F807A"/>
<path d="M83.997 42H77.9985V48H83.997V42Z" fill="#7F807A"/>
<path d="M83.997 36H77.9985V42H83.997V36Z" fill="#7F807A"/>
<path d="M83.997 30H77.9985V36H83.997V30Z" fill="#7F807A"/>
<path d="M83.997 24H77.9985V30H83.997V24Z" fill="#7F807A"/>
<path d="M83.997 18H77.9985V24H83.997V18Z" fill="#7F807A"/>
<path d="M83.997 12H77.9985V18H83.997V12Z" fill="#7F807A"/>
<path d="M83.997 6H77.9985V12H83.997V6Z" fill="#7F807A"/>
<path d="M83.997 0H77.9985V6H83.997V0Z" fill="black"/>
<path d="M77.9985 102H72.0001V108H77.9985V102Z" fill="black"/>
<path d="M77.9985 96H72.0001V102H77.9985V96Z" fill="#7F807A"/>
<path d="M77.9985 90H72.0001V96H77.9985V90Z" fill="#7F807A"/>
<path d="M77.9985 84H72.0001V90H77.9985V84Z" fill="#7F807A"/>
<path d="M77.9985 78H72.0001V84H77.9985V78Z" fill="#7F807A"/>
<path d="M77.9985 72H72.0001V78H77.9985V72Z" fill="#7F807A"/>
<path d="M77.9985 66H72.0001V72H77.9985V66Z" fill="#7F807A"/>
<path d="M77.9985 60H72.0001V66H77.9985V60Z" fill="#7F807A"/>
<path d="M77.9985 54H72.0001V60H77.9985V54Z" fill="#7F807A"/>
<path d="M77.9985 48H72.0001V54H77.9985V48Z" fill="#7F807A"/>
<path d="M77.9985 42H72.0001V48H77.9985V42Z" fill="#7F807A"/>
<path d="M77.9985 36H72.0001V42H77.9985V36Z" fill="#7F807A"/>
<path d="M77.9985 30H72.0001V36H77.9985V30Z" fill="#7F807A"/>
<path d="M77.9985 24H72.0001V30H77.9985V24Z" fill="#7F807A"/>
<path d="M77.9985 18H72.0001V24H77.9985V18Z" fill="#7F807A"/>
<path d="M77.9985 12H72.0001V18H77.9985V12Z" fill="#7F807A"/>
<path d="M77.9985 6H72.0001V12H77.9985V6Z" fill="#7F807A"/>
<path d="M77.9985 0H72.0001V6H77.9985V0Z" fill="black"/>
<path d="M72 102H65.9985V108H72V102Z" fill="black"/>
<path d="M72 96H65.9985V102H72V96Z" fill="#7F807A"/>
<path d="M72 90H65.9985V96H72V90Z" fill="#7F807A"/>
<path d="M72 84H65.9985V90H72V84Z" fill="#7F807A"/>
<path d="M72 78H65.9985V84H72V78Z" fill="#7F807A"/>
<path d="M72 72H65.9985V78H72V72Z" fill="#7F807A"/>
<path d="M72 66H65.9985V72H72V66Z" fill="#7F807A"/>
<path d="M72 60H65.9985V66H72V60Z" fill="#7F807A"/>
<path d="M72 54H65.9985V60H72V54Z" fill="#7F807A"/>
<path d="M72 48H65.9985V54H72V48Z" fill="#7F807A"/>
<path d="M72 42H65.9985V48H72V42Z" fill="#7F807A"/>
<path d="M72 36H65.9985V42H72V36Z" fill="#7F807A"/>
<path d="M72 30H65.9985V36H72V30Z" fill="#7F807A"/>
<path d="M72 24H65.9985V30H72V24Z" fill="#7F807A"/>
<path d="M72 18H65.9985V24H72V18Z" fill="#7F807A"/>
<path d="M72 12H65.9985V18H72V12Z" fill="#7F807A"/>
<path d="M72 6H65.9985V12H72V6Z" fill="#7F807A"/>
<path d="M72 0H65.9985V6H72V0Z" fill="black"/>
<path d="M65.9985 102H59.997V108H65.9985V102Z" fill="black"/>
<path d="M65.9985 96H59.997V102H65.9985V96Z" fill="#7F807A"/>
<path d="M65.9985 90H59.997V96H65.9985V90Z" fill="#7F807A"/>
<path d="M65.9985 84H59.997V90H65.9985V84Z" fill="#7F807A"/>
<path d="M65.9985 78H59.997V84H65.9985V78Z" fill="#7F807A"/>
<path d="M65.9985 72H59.997V78H65.9985V72Z" fill="#7F807A"/>
<path d="M65.9985 66H59.997V72H65.9985V66Z" fill="#7F807A"/>
<path d="M65.9985 60H59.997V66H65.9985V60Z" fill="#7F807A"/>
<path d="M65.9985 54H59.997V60H65.9985V54Z" fill="#7F807A"/>
<path d="M65.9985 48H59.997V54H65.9985V48Z" fill="#7F807A"/>
<path d="M65.9985 42H59.997V48H65.9985V42Z" fill="#7F807A"/>
<path d="M65.9985 36H59.997V42H65.9985V36Z" fill="#7F807A"/>
<path d="M65.9985 30H59.997V36H65.9985V30Z" fill="#7F807A"/>
<path d="M65.9985 24H59.997V30H65.9985V24Z" fill="#7F807A"/>
<path d="M65.9985 18H59.997V24H65.9985V18Z" fill="#7F807A"/>
<path d="M65.9985 12H59.997V18H65.9985V12Z" fill="#7F807A"/>
<path d="M65.9985 6H59.997V12H65.9985V6Z" fill="#7F807A"/>
<path d="M65.9985 0H59.997V6H65.9985V0Z" fill="black"/>
<path d="M59.997 102H53.9985V108H59.997V102Z" fill="black"/>
<path d="M59.997 96H53.9985V102H59.997V96Z" fill="#7F807A"/>
<path d="M59.997 90H53.9985V96H59.997V90Z" fill="#7F807A"/>
<path d="M59.997 84H53.9985V90H59.997V84Z" fill="#7F807A"/>
<path d="M59.997 78H53.9985V84H59.997V78Z" fill="#7F807A"/>
<path d="M59.997 72H53.9985V78H59.997V72Z" fill="#7F807A"/>
<path d="M59.997 66H53.9985V72H59.997V66Z" fill="#7F807A"/>
<path d="M59.997 60H53.9985V66H59.997V60Z" fill="#7F807A"/>
<path d="M59.997 54H53.9985V60H59.997V54Z" fill="#7F807A"/>
<path d="M59.997 48H53.9985V54H59.997V48Z" fill="#7F807A"/>
<path d="M59.997 42H53.9985V48H59.997V42Z" fill="#7F807A"/>
<path d="M59.997 36H53.9985V42H59.997V36Z" fill="#7F807A"/>
<path d="M59.997 30H53.9985V36H59.997V30Z" fill="#7F807A"/>
<path d="M59.997 24H53.9985V30H59.997V24Z" fill="#7F807A"/>
<path d="M59.997 18H53.9985V24H59.997V18Z" fill="#7F807A"/>
<path d="M59.997 12H53.9985V18H59.997V12Z" fill="#7F807A"/>
<path d="M59.997 6H53.9985V12H59.997V6Z" fill="#7F807A"/>
<path d="M59.997 0H53.9985V6H59.997V0Z" fill="black"/>
<path d="M53.9984 102H47.9999V108H53.9984V102Z" fill="black"/>
<path d="M53.9984 96H47.9999V102H53.9984V96Z" fill="#7F807A"/>
<path d="M53.9984 90H47.9999V96H53.9984V90Z" fill="#7F807A"/>
<path d="M53.9984 84H47.9999V90H53.9984V84Z" fill="#7F807A"/>
<path d="M53.9984 78H47.9999V84H53.9984V78Z" fill="#7F807A"/>
<path d="M53.9984 72H47.9999V78H53.9984V72Z" fill="#7F807A"/>
<path d="M53.9984 66H47.9999V72H53.9984V66Z" fill="#7F807A"/>
<path d="M53.9984 60H47.9999V66H53.9984V60Z" fill="#7F807A"/>
<path d="M53.9984 54H47.9999V60H53.9984V54Z" fill="#7F807A"/>
<path d="M53.9984 48H47.9999V54H53.9984V48Z" fill="#7F807A"/>
<path d="M53.9984 42H47.9999V48H53.9984V42Z" fill="#7F807A"/>
<path d="M53.9984 36H47.9999V42H53.9984V36Z" fill="#7F807A"/>
<path d="M53.9984 30H47.9999V36H53.9984V30Z" fill="#7F807A"/>
<path d="M53.9984 24H47.9999V30H53.9984V24Z" fill="#7F807A"/>
<path d="M53.9984 18H47.9999V24H53.9984V18Z" fill="#7F807A"/>
<path d="M53.9984 12H47.9999V18H53.9984V12Z" fill="#7F807A"/>
<path d="M53.9984 6H47.9999V12H53.9984V6Z" fill="#7F807A"/>
<path d="M53.9984 0H47.9999V6H53.9984V0Z" fill="black"/>
<path d="M48 102H41.9985V108H48V102Z" fill="black"/>
<path d="M48 96H41.9985V102H48V96Z" fill="#7F807A"/>
<path d="M48 90H41.9985V96H48V90Z" fill="#7F807A"/>
<path d="M48 84H41.9985V90H48V84Z" fill="#7F807A"/>
<path d="M48 78H41.9985V84H48V78Z" fill="#7F807A"/>
<path d="M48 72H41.9985V78H48V72Z" fill="#7F807A"/>
<path d="M48 66H41.9985V72H48V66Z" fill="#7F807A"/>
<path d="M48 60H41.9985V66H48V60Z" fill="#7F807A"/>
<path d="M48 54H41.9985V60H48V54Z" fill="#7F807A"/>
<path d="M48 48H41.9985V54H48V48Z" fill="#7F807A"/>
<path d="M48 42H41.9985V48H48V42Z" fill="#7F807A"/>
<path d="M48 36H41.9985V42H48V36Z" fill="#7F807A"/>
<path d="M48 30H41.9985V36H48V30Z" fill="#7F807A"/>
<path d="M48 24H41.9985V30H48V24Z" fill="#7F807A"/>
<path d="M48 18H41.9985V24H48V18Z" fill="#7F807A"/>
<path d="M48 12H41.9985V18H48V12Z" fill="#7F807A"/>
<path d="M48 6H41.9985V12H48V6Z" fill="#7F807A"/>
<path d="M48 0H41.9985V6H48V0Z" fill="black"/>
<path d="M41.9985 102H35.997V108H41.9985V102Z" fill="black"/>
<path d="M41.9985 96H35.997V102H41.9985V96Z" fill="#7F807A"/>
<path d="M41.9985 90H35.997V96H41.9985V90Z" fill="#7F807A"/>
<path d="M41.9985 84H35.997V90H41.9985V84Z" fill="#7F807A"/>
<path d="M41.9985 78H35.997V84H41.9985V78Z" fill="#7F807A"/>
<path d="M41.9985 72H35.997V78H41.9985V72Z" fill="#7F807A"/>
<path d="M41.9985 66H35.997V72H41.9985V66Z" fill="#7F807A"/>
<path d="M41.9985 60H35.997V66H41.9985V60Z" fill="#7F807A"/>
<path d="M41.9985 54H35.997V60H41.9985V54Z" fill="#7F807A"/>
<path d="M41.9985 48H35.997V54H41.9985V48Z" fill="#7F807A"/>
<path d="M41.9985 42H35.997V48H41.9985V42Z" fill="#7F807A"/>
<path d="M41.9985 36H35.997V42H41.9985V36Z" fill="#7F807A"/>
<path d="M41.9985 30H35.997V36H41.9985V30Z" fill="#7F807A"/>
<path d="M41.9985 24H35.997V30H41.9985V24Z" fill="#7F807A"/>
<path d="M41.9985 18H35.997V24H41.9985V18Z" fill="#7F807A"/>
<path d="M41.9985 12H35.997V18H41.9985V12Z" fill="#7F807A"/>
<path d="M41.9985 6H35.997V12H41.9985V6Z" fill="#7F807A"/>
<path d="M41.9985 0H35.997V6H41.9985V0Z" fill="black"/>
<path d="M35.997 102H29.9985V108H35.997V102Z" fill="black"/>
<path d="M35.997 96H29.9985V102H35.997V96Z" fill="#7F807A"/>
<path d="M35.997 90H29.9985V96H35.997V90Z" fill="#7F807A"/>
<path d="M35.997 84H29.9985V90H35.997V84Z" fill="#7F807A"/>
<path d="M35.997 78H29.9985V84H35.997V78Z" fill="#7F807A"/>
<path d="M35.997 72H29.9985V78H35.997V72Z" fill="#7F807A"/>
<path d="M35.997 66H29.9985V72H35.997V66Z" fill="#7F807A"/>
<path d="M35.997 60H29.9985V66H35.997V60Z" fill="#7F807A"/>
<path d="M35.997 54H29.9985V60H35.997V54Z" fill="#7F807A"/>
<path d="M35.997 48H29.9985V54H35.997V48Z" fill="#7F807A"/>
<path d="M35.997 42H29.9985V48H35.997V42Z" fill="#7F807A"/>
<path d="M35.997 36H29.9985V42H35.997V36Z" fill="#7F807A"/>
<path d="M35.997 30H29.9985V36H35.997V30Z" fill="#7F807A"/>
<path d="M35.997 24H29.9985V30H35.997V24Z" fill="#7F807A"/>
<path d="M35.997 18H29.9985V24H35.997V18Z" fill="#7F807A"/>
<path d="M35.997 12H29.9985V18H35.997V12Z" fill="#7F807A"/>
<path d="M35.997 6H29.9985V12H35.997V6Z" fill="#7F807A"/>
<path d="M35.997 0H29.9985V6H35.997V0Z" fill="black"/>
<path d="M29.9985 102H24V108H29.9985V102Z" fill="black"/>
<path d="M29.9985 96H24V102H29.9985V96Z" fill="#7F807A"/>
<path d="M29.9985 90H24V96H29.9985V90Z" fill="#7F807A"/>
<path d="M29.9985 84H24V90H29.9985V84Z" fill="#7F807A"/>
<path d="M29.9985 78H24V84H29.9985V78Z" fill="#7F807A"/>
<path d="M29.9985 72H24V78H29.9985V72Z" fill="#7F807A"/>
<path d="M29.9985 66H24V72H29.9985V66Z" fill="#7F807A"/>
<path d="M29.9985 60H24V66H29.9985V60Z" fill="#7F807A"/>
<path d="M29.9985 54H24V60H29.9985V54Z" fill="#7F807A"/>
<path d="M29.9985 48H24V54H29.9985V48Z" fill="#7F807A"/>
<path d="M29.9985 42H24V48H29.9985V42Z" fill="#7F807A"/>
<path d="M29.9985 36H24V42H29.9985V36Z" fill="#7F807A"/>
<path d="M29.9985 30H24V36H29.9985V30Z" fill="#7F807A"/>
<path d="M29.9985 24H24V30H29.9985V24Z" fill="#7F807A"/>
<path d="M29.9985 18H24V24H29.9985V18Z" fill="#7F807A"/>
<path d="M29.9985 12H24V18H29.9985V12Z" fill="#7F807A"/>
<path d="M29.9985 6H24V12H29.9985V6Z" fill="#7F807A"/>
<path d="M29.9985 0H24V6H29.9985V0Z" fill="black"/>
<path d="M24 102H17.9985V108H24V102Z" fill="black"/>
<path d="M24 96H17.9985V102H24V96Z" fill="#7F807A"/>
<path d="M24 90H17.9985V96H24V90Z" fill="#7F807A"/>
<path d="M24 84H17.9985V90H24V84Z" fill="#7F807A"/>
<path d="M24 78H17.9985V84H24V78Z" fill="#7F807A"/>
<path d="M24 72H17.9985V78H24V72Z" fill="#7F807A"/>
<path d="M24 66H17.9985V72H24V66Z" fill="#7F807A"/>
<path d="M24 60H17.9985V66H24V60Z" fill="#7F807A"/>
<path d="M24 54H17.9985V60H24V54Z" fill="#7F807A"/>
<path d="M24 48H17.9985V54H24V48Z" fill="#7F807A"/>
<path d="M24 42H17.9985V48H24V42Z" fill="#7F807A"/>
<path d="M24 36H17.9985V42H24V36Z" fill="#7F807A"/>
<path d="M24 30H17.9985V36H24V30Z" fill="#7F807A"/>
<path d="M24 24H17.9985V30H24V24Z" fill="#7F807A"/>
<path d="M24 18H17.9985V24H24V18Z" fill="#7F807A"/>
<path d="M24 12H17.9985V18H24V12Z" fill="#7F807A"/>
<path d="M24 6H17.9985V12H24V6Z" fill="#7F807A"/>
<path d="M24 0H17.9985V6H24V0Z" fill="black"/>
<path d="M17.9985 102H11.997V108H17.9985V102Z" fill="black"/>
<path d="M17.9985 96H11.997V102H17.9985V96Z" fill="#7F807A"/>
<path d="M17.9985 90H11.997V96H17.9985V90Z" fill="#7F807A"/>
<path d="M17.9985 84H11.997V90H17.9985V84Z" fill="#7F807A"/>
<path d="M17.9985 78H11.997V84H17.9985V78Z" fill="#7F807A"/>
<path d="M17.9985 72H11.997V78H17.9985V72Z" fill="#7F807A"/>
<path d="M17.9985 66H11.997V72H17.9985V66Z" fill="#7F807A"/>
<path d="M17.9985 60H11.997V66H17.9985V60Z" fill="#7F807A"/>
<path d="M17.9985 54H11.997V60H17.9985V54Z" fill="#7F807A"/>
<path d="M17.9985 48H11.997V54H17.9985V48Z" fill="#7F807A"/>
<path d="M17.9985 42H11.997V48H17.9985V42Z" fill="#7F807A"/>
<path d="M17.9985 36H11.997V42H17.9985V36Z" fill="#7F807A"/>
<path d="M17.9985 30H11.997V36H17.9985V30Z" fill="#7F807A"/>
<path d="M17.9985 24H11.997V30H17.9985V24Z" fill="#7F807A"/>
<path d="M17.9985 18H11.997V24H17.9985V18Z" fill="#7F807A"/>
<path d="M17.9985 12H11.997V18H17.9985V12Z" fill="#7F807A"/>
<path d="M17.9985 6H11.997V12H17.9985V6Z" fill="#7F807A"/>
<path d="M17.9985 0H11.997V6H17.9985V0Z" fill="black"/>
<path d="M11.997 96H5.99854V102H11.997V96Z" fill="black"/>
<path d="M11.997 90H5.99854V96H11.997V90Z" fill="#7F807A"/>
<path d="M11.997 84H5.99854V90H11.997V84Z" fill="#7F807A"/>
<path d="M11.997 78H5.99854V84H11.997V78Z" fill="#7F807A"/>
<path d="M11.997 72H5.99854V78H11.997V72Z" fill="#7F807A"/>
<path d="M11.997 66H5.99854V72H11.997V66Z" fill="#7F807A"/>
<path d="M11.997 60H5.99854V66H11.997V60Z" fill="#7F807A"/>
<path d="M11.997 54H5.99854V60H11.997V54Z" fill="#7F807A"/>
<path d="M11.997 48H5.99854V54H11.997V48Z" fill="#7F807A"/>
<path d="M11.997 42H5.99854V48H11.997V42Z" fill="#7F807A"/>
<path d="M11.997 36H5.99854V42H11.997V36Z" fill="#7F807A"/>
<path d="M11.997 30H5.99854V36H11.997V30Z" fill="#7F807A"/>
<path d="M11.997 24H5.99854V30H11.997V24Z" fill="#7F807A"/>
<path d="M11.997 18H5.99854V24H11.997V18Z" fill="#7F807A"/>
<path d="M11.997 12H5.99854V18H11.997V12Z" fill="#7F807A"/>
<path d="M11.997 6H5.99854V12H11.997V6Z" fill="black"/>
<path d="M5.9985 90H0V96H5.9985V90Z" fill="black"/>
<path d="M5.9985 84H0V90H5.9985V84Z" fill="black"/>
<path d="M5.9985 78H0V84H5.9985V78Z" fill="black"/>
<path d="M5.9985 72H0V78H5.9985V72Z" fill="black"/>
<path d="M5.9985 66H0V72H5.9985V66Z" fill="black"/>
<path d="M5.9985 60H0V66H5.9985V60Z" fill="black"/>
<path d="M5.9985 54H0V60H5.9985V54Z" fill="black"/>
<path d="M5.9985 48H0V54H5.9985V48Z" fill="black"/>
<path d="M5.9985 42H0V48H5.9985V42Z" fill="black"/>
<path d="M5.9985 36H0V42H5.9985V36Z" fill="black"/>
<path d="M5.9985 30H0V36H5.9985V30Z" fill="black"/>
<path d="M5.9985 24H0V30H5.9985V24Z" fill="black"/>
<path d="M5.9985 18H0V24H5.9985V18Z" fill="black"/>
<path d="M5.9985 12H0V18H5.9985V12Z" fill="black"/>
</svg>
