<svg width="36" height="36" viewBox="0 0 36 36" fill="none" xmlns="http://www.w3.org/2000/svg">
<rect width="36" height="36" fill="white"/>
<path d="M35.7534 33.5342H33.5342V35.7534H35.7534V33.5342Z" fill="white"/>
<path d="M35.7534 31.3151H33.5342V33.5342H35.7534V31.3151Z" fill="white"/>
<path d="M35.7534 29.0959H33.5342V31.3151H35.7534V29.0959Z" fill="black"/>
<path d="M35.7534 26.8767H33.5342V29.0959H35.7534V26.8767Z" fill="black"/>
<path d="M35.7534 24.6575H33.5342V26.8767H35.7534V24.6575Z" fill="black"/>
<path d="M35.7534 22.4384H33.5342V24.6575H35.7534V22.4384Z" fill="black"/>
<path d="M35.7534 20.2192H33.5342V22.4384H35.7534V20.2192Z" fill="black"/>
<path d="M35.7534 18H33.5342V20.2192H35.7534V18Z" fill="black"/>
<path d="M35.7534 15.7808H33.5342V18H35.7534V15.7808Z" fill="black"/>
<path d="M35.7534 13.5616H33.5342V15.7808H35.7534V13.5616Z" fill="black"/>
<path d="M35.7534 11.3425H33.5342V13.5616H35.7534V11.3425Z" fill="black"/>
<path d="M35.7534 9.12329H33.5342V11.3425H35.7534V9.12329Z" fill="black"/>
<path d="M35.7534 6.90411H33.5342V9.12329H35.7534V6.90411Z" fill="black"/>
<path d="M35.7534 4.68494H33.5342V6.90412H35.7534V4.68494Z" fill="black"/>
<path d="M35.7534 2.46576H33.5342V4.68494H35.7534V2.46576Z" fill="white"/>
<path d="M35.7534 0.246582H33.5342V2.46576H35.7534V0.246582Z" fill="white"/>
<path d="M33.5342 33.5342H31.3151V35.7534H33.5342V33.5342Z" fill="white"/>
<path d="M33.5342 31.3151H31.3151V33.5342H33.5342V31.3151Z" fill="black"/>
<path d="M33.5342 29.0959H31.3151V31.3151H33.5342V29.0959Z" fill="black"/>
<path d="M33.5342 26.8767H31.3151V29.0959H33.5342V26.8767Z" fill="black"/>
<path d="M33.5342 24.6575H31.3151V26.8767H33.5342V24.6575Z" fill="black"/>
<path d="M33.5342 22.4384H31.3151V24.6575H33.5342V22.4384Z" fill="black"/>
<path d="M33.5342 20.2192H31.3151V22.4384H33.5342V20.2192Z" fill="black"/>
<path d="M33.5342 18H31.3151V20.2192H33.5342V18Z" fill="black"/>
<path d="M33.5342 15.7808H31.3151V18H33.5342V15.7808Z" fill="black"/>
<path d="M33.5342 13.5616H31.3151V15.7808H33.5342V13.5616Z" fill="black"/>
<path d="M33.5342 11.3425H31.3151V13.5616H33.5342V11.3425Z" fill="black"/>
<path d="M33.5342 9.12329H31.3151V11.3425H33.5342V9.12329Z" fill="black"/>
<path d="M33.5342 6.90411H31.3151V9.12329H33.5342V6.90411Z" fill="black"/>
<path d="M33.5342 4.68494H31.3151V6.90412H33.5342V4.68494Z" fill="black"/>
<path d="M33.5342 2.46576H31.3151V4.68494H33.5342V2.46576Z" fill="black"/>
<path d="M33.5342 0.246582H31.3151V2.46576H33.5342V0.246582Z" fill="white"/>
<path d="M31.3151 33.5342H29.0959V35.7534H31.3151V33.5342Z" fill="black"/>
<path d="M31.3151 31.3151H29.0959V33.5342H31.3151V31.3151Z" fill="black"/>
<path d="M31.3151 29.0959H29.0959V31.3151H31.3151V29.0959Z" fill="black"/>
<path d="M31.3151 26.8767H29.0959V29.0959H31.3151V26.8767Z" fill="black"/>
<path d="M31.3151 24.6575H29.0959V26.8767H31.3151V24.6575Z" fill="black"/>
<path d="M31.3151 22.4384H29.0959V24.6575H31.3151V22.4384Z" fill="black"/>
<path d="M31.3151 20.2192H29.0959V22.4384H31.3151V20.2192Z" fill="black"/>
<path d="M31.3151 18H29.0959V20.2192H31.3151V18Z" fill="black"/>
<path d="M31.3151 15.7808H29.0959V18H31.3151V15.7808Z" fill="white"/>
<path d="M31.3151 13.5616H29.0959V15.7808H31.3151V13.5616Z" fill="white"/>
<path d="M31.3151 11.3425H29.0959V13.5616H31.3151V11.3425Z" fill="white"/>
<path d="M31.3151 9.12329H29.0959V11.3425H31.3151V9.12329Z" fill="white"/>
<path d="M31.3151 6.90411H29.0959V9.12329H31.3151V6.90411Z" fill="white"/>
<path d="M31.3151 4.68494H29.0959V6.90412H31.3151V4.68494Z" fill="black"/>
<path d="M31.3151 2.46576H29.0959V4.68494H31.3151V2.46576Z" fill="black"/>
<path d="M31.3151 0.246582H29.0959V2.46576H31.3151V0.246582Z" fill="black"/>
<path d="M29.0959 33.5342H26.8767V35.7534H29.0959V33.5342Z" fill="black"/>
<path d="M29.0959 31.3151H26.8767V33.5342H29.0959V31.3151Z" fill="black"/>
<path d="M29.0959 29.0959H26.8767V31.3151H29.0959V29.0959Z" fill="black"/>
<path d="M29.0959 26.8767H26.8767V29.0959H29.0959V26.8767Z" fill="black"/>
<path d="M29.0959 24.6575H26.8767V26.8767H29.0959V24.6575Z" fill="black"/>
<path d="M29.0959 22.4384H26.8767V24.6575H29.0959V22.4384Z" fill="black"/>
<path d="M29.0959 20.2192H26.8767V22.4384H29.0959V20.2192Z" fill="black"/>
<path d="M29.0959 18H26.8767V20.2192H29.0959V18Z" fill="white"/>
<path d="M29.0959 15.7808H26.8767V18H29.0959V15.7808Z" fill="white"/>
<path d="M29.0959 13.5616H26.8767V15.7808H29.0959V13.5616Z" fill="white"/>
<path d="M29.0959 11.3425H26.8767V13.5616H29.0959V11.3425Z" fill="white"/>
<path d="M29.0959 9.12329H26.8767V11.3425H29.0959V9.12329Z" fill="white"/>
<path d="M29.0959 6.90411H26.8767V9.12329H29.0959V6.90411Z" fill="white"/>
<path d="M29.0959 4.68494H26.8767V6.90412H29.0959V4.68494Z" fill="white"/>
<path d="M29.0959 2.46576H26.8767V4.68494H29.0959V2.46576Z" fill="black"/>
<path d="M29.0959 0.246582H26.8767V2.46576H29.0959V0.246582Z" fill="black"/>
<path d="M26.8767 33.5342H24.6575V35.7534H26.8767V33.5342Z" fill="black"/>
<path d="M26.8767 31.3151H24.6575V33.5342H26.8767V31.3151Z" fill="black"/>
<path d="M26.8767 29.0959H24.6575V31.3151H26.8767V29.0959Z" fill="black"/>
<path d="M26.8767 26.8767H24.6575V29.0959H26.8767V26.8767Z" fill="black"/>
<path d="M26.8767 24.6575H24.6575V26.8767H26.8767V24.6575Z" fill="black"/>
<path d="M26.8767 22.4384H24.6575V24.6575H26.8767V22.4384Z" fill="black"/>
<path d="M26.8767 20.2192H24.6575V22.4384H26.8767V20.2192Z" fill="white"/>
<path d="M26.8767 18H24.6575V20.2192H26.8767V18Z" fill="white"/>
<path d="M26.8767 15.7808H24.6575V18H26.8767V15.7808Z" fill="white"/>
<path d="M26.8767 13.5616H24.6575V15.7808H26.8767V13.5616Z" fill="white"/>
<path d="M26.8767 11.3425H24.6575V13.5616H26.8767V11.3425Z" fill="white"/>
<path d="M26.8767 9.12329H24.6575V11.3425H26.8767V9.12329Z" fill="white"/>
<path d="M26.8767 6.90411H24.6575V9.12329H26.8767V6.90411Z" fill="white"/>
<path d="M26.8767 4.68494H24.6575V6.90412H26.8767V4.68494Z" fill="black"/>
<path d="M26.8767 2.46576H24.6575V4.68494H26.8767V2.46576Z" fill="black"/>
<path d="M26.8767 0.246582H24.6575V2.46576H26.8767V0.246582Z" fill="black"/>
<path d="M24.6575 33.5342H22.4384V35.7534H24.6575V33.5342Z" fill="black"/>
<path d="M24.6575 31.3151H22.4384V33.5342H24.6575V31.3151Z" fill="black"/>
<path d="M24.6575 29.0959H22.4384V31.3151H24.6575V29.0959Z" fill="black"/>
<path d="M24.6575 26.8767H22.4384V29.0959H24.6575V26.8767Z" fill="black"/>
<path d="M24.6575 24.6575H22.4384V26.8767H24.6575V24.6575Z" fill="black"/>
<path d="M24.6575 22.4384H22.4384V24.6575H24.6575V22.4384Z" fill="black"/>
<path d="M24.6575 20.2192H22.4384V22.4384H24.6575V20.2192Z" fill="white"/>
<path d="M24.6575 18H22.4384V20.2192H24.6575V18Z" fill="white"/>
<path d="M24.6575 15.7808H22.4384V18H24.6575V15.7808Z" fill="white"/>
<path d="M24.6575 13.5616H22.4384V15.7808H24.6575V13.5616Z" fill="white"/>
<path d="M24.6575 11.3425H22.4384V13.5616H24.6575V11.3425Z" fill="white"/>
<path d="M24.6575 9.12329H22.4384V11.3425H24.6575V9.12329Z" fill="white"/>
<path d="M24.6575 6.90411H22.4384V9.12329H24.6575V6.90411Z" fill="black"/>
<path d="M24.6575 4.68494H22.4384V6.90412H24.6575V4.68494Z" fill="black"/>
<path d="M24.6575 2.46576H22.4384V4.68494H24.6575V2.46576Z" fill="black"/>
<path d="M24.6575 0.246582H22.4384V2.46576H24.6575V0.246582Z" fill="black"/>
<path d="M22.4384 33.5342H20.2192V35.7534H22.4384V33.5342Z" fill="black"/>
<path d="M22.4384 31.3151H20.2192V33.5342H22.4384V31.3151Z" fill="white"/>
<path d="M22.4384 29.0959H20.2192V31.3151H22.4384V29.0959Z" fill="white"/>
<path d="M22.4384 26.8767H20.2192V29.0959H22.4384V26.8767Z" fill="white"/>
<path d="M22.4384 24.6575H20.2192V26.8767H22.4384V24.6575Z" fill="white"/>
<path d="M22.4384 22.4384H20.2192V24.6575H22.4384V22.4384Z" fill="black"/>
<path d="M22.4384 20.2192H20.2192V22.4384H22.4384V20.2192Z" fill="white"/>
<path d="M22.4384 18H20.2192V20.2192H22.4384V18Z" fill="white"/>
<path d="M22.4384 15.7808H20.2192V18H22.4384V15.7808Z" fill="white"/>
<path d="M22.4384 13.5616H20.2192V15.7808H22.4384V13.5616Z" fill="white"/>
<path d="M22.4384 11.3425H20.2192V13.5616H22.4384V11.3425Z" fill="white"/>
<path d="M22.4384 9.12329H20.2192V11.3425H22.4384V9.12329Z" fill="white"/>
<path d="M22.4384 6.90411H20.2192V9.12329H22.4384V6.90411Z" fill="black"/>
<path d="M22.4384 4.68494H20.2192V6.90412H22.4384V4.68494Z" fill="black"/>
<path d="M22.4384 2.46576H20.2192V4.68494H22.4384V2.46576Z" fill="black"/>
<path d="M22.4384 0.246582H20.2192V2.46576H22.4384V0.246582Z" fill="black"/>
<path d="M20.2192 33.5342H18V35.7534H20.2192V33.5342Z" fill="black"/>
<path d="M20.2192 31.3151H18V33.5342H20.2192V31.3151Z" fill="white"/>
<path d="M20.2192 29.0959H18V31.3151H20.2192V29.0959Z" fill="white"/>
<path d="M20.2192 26.8767H18V29.0959H20.2192V26.8767Z" fill="white"/>
<path d="M20.2192 24.6575H18V26.8767H20.2192V24.6575Z" fill="white"/>
<path d="M20.2192 22.4384H18V24.6575H20.2192V22.4384Z" fill="white"/>
<path d="M20.2192 20.2192H18V22.4384H20.2192V20.2192Z" fill="white"/>
<path d="M20.2192 18H18V20.2192H20.2192V18Z" fill="white"/>
<path d="M20.2192 15.7808H18V18H20.2192V15.7808Z" fill="white"/>
<path d="M20.2192 13.5616H18V15.7808H20.2192V13.5616Z" fill="white"/>
<path d="M20.2192 11.3425H18V13.5616H20.2192V11.3425Z" fill="white"/>
<path d="M20.2192 9.12329H18V11.3425H20.2192V9.12329Z" fill="white"/>
<path d="M20.2192 6.90411H18V9.12329H20.2192V6.90411Z" fill="black"/>
<path d="M20.2192 4.68494H18V6.90412H20.2192V4.68494Z" fill="black"/>
<path d="M20.2192 2.46576H18V4.68494H20.2192V2.46576Z" fill="black"/>
<path d="M20.2192 0.246582H18V2.46576H20.2192V0.246582Z" fill="black"/>
<path d="M18 33.5342H15.7808V35.7534H18V33.5342Z" fill="black"/>
<path d="M18 31.3151H15.7808V33.5342H18V31.3151Z" fill="white"/>
<path d="M18 29.0959H15.7808V31.3151H18V29.0959Z" fill="white"/>
<path d="M18 26.8767H15.7808V29.0959H18V26.8767Z" fill="white"/>
<path d="M18 24.6575H15.7808V26.8767H18V24.6575Z" fill="white"/>
<path d="M18 22.4384H15.7808V24.6575H18V22.4384Z" fill="white"/>
<path d="M18 20.2192H15.7808V22.4384H18V20.2192Z" fill="white"/>
<path d="M18 18H15.7808V20.2192H18V18Z" fill="white"/>
<path d="M18 15.7808H15.7808V18H18V15.7808Z" fill="white"/>
<path d="M18 13.5616H15.7808V15.7808H18V13.5616Z" fill="white"/>
<path d="M18 11.3425H15.7808V13.5616H18V11.3425Z" fill="white"/>
<path d="M18 9.12329H15.7808V11.3425H18V9.12329Z" fill="white"/>
<path d="M18 6.90411H15.7808V9.12329H18V6.90411Z" fill="black"/>
<path d="M18 4.68494H15.7808V6.90412H18V4.68494Z" fill="black"/>
<path d="M18 2.46576H15.7808V4.68494H18V2.46576Z" fill="black"/>
<path d="M18 0.246582H15.7808V2.46576H18V0.246582Z" fill="black"/>
<path d="M15.7808 33.5342H13.5616V35.7534H15.7808V33.5342Z" fill="black"/>
<path d="M15.7808 31.3151H13.5616V33.5342H15.7808V31.3151Z" fill="white"/>
<path d="M15.7808 29.0959H13.5616V31.3151H15.7808V29.0959Z" fill="white"/>
<path d="M15.7808 26.8767H13.5616V29.0959H15.7808V26.8767Z" fill="white"/>
<path d="M15.7808 24.6575H13.5616V26.8767H15.7808V24.6575Z" fill="white"/>
<path d="M15.7808 22.4384H13.5616V24.6575H15.7808V22.4384Z" fill="black"/>
<path d="M15.7808 20.2192H13.5616V22.4384H15.7808V20.2192Z" fill="white"/>
<path d="M15.7808 18H13.5616V20.2192H15.7808V18Z" fill="white"/>
<path d="M15.7808 15.7808H13.5616V18H15.7808V15.7808Z" fill="white"/>
<path d="M15.7808 13.5616H13.5616V15.7808H15.7808V13.5616Z" fill="white"/>
<path d="M15.7808 11.3425H13.5616V13.5616H15.7808V11.3425Z" fill="white"/>
<path d="M15.7808 9.12329H13.5616V11.3425H15.7808V9.12329Z" fill="white"/>
<path d="M15.7808 6.90411H13.5616V9.12329H15.7808V6.90411Z" fill="black"/>
<path d="M15.7808 4.68494H13.5616V6.90412H15.7808V4.68494Z" fill="black"/>
<path d="M15.7808 2.46576H13.5616V4.68494H15.7808V2.46576Z" fill="black"/>
<path d="M15.7808 0.246582H13.5616V2.46576H15.7808V0.246582Z" fill="black"/>
<path d="M13.5616 33.5342H11.3425V35.7534H13.5616V33.5342Z" fill="black"/>
<path d="M13.5616 31.3151H11.3425V33.5342H13.5616V31.3151Z" fill="black"/>
<path d="M13.5616 29.0959H11.3425V31.3151H13.5616V29.0959Z" fill="white"/>
<path d="M13.5616 26.8767H11.3425V29.0959H13.5616V26.8767Z" fill="black"/>
<path d="M13.5616 24.6575H11.3425V26.8767H13.5616V24.6575Z" fill="black"/>
<path d="M13.5616 22.4384H11.3425V24.6575H13.5616V22.4384Z" fill="black"/>
<path d="M13.5616 20.2192H11.3425V22.4384H13.5616V20.2192Z" fill="white"/>
<path d="M13.5616 18H11.3425V20.2192H13.5616V18Z" fill="white"/>
<path d="M13.5616 15.7808H11.3425V18H13.5616V15.7808Z" fill="white"/>
<path d="M13.5616 13.5616H11.3425V15.7808H13.5616V13.5616Z" fill="white"/>
<path d="M13.5616 11.3425H11.3425V13.5616H13.5616V11.3425Z" fill="white"/>
<path d="M13.5616 9.12329H11.3425V11.3425H13.5616V9.12329Z" fill="white"/>
<path d="M13.5616 6.90411H11.3425V9.12329H13.5616V6.90411Z" fill="black"/>
<path d="M13.5616 4.68494H11.3425V6.90412H13.5616V4.68494Z" fill="black"/>
<path d="M13.5616 2.46576H11.3425V4.68494H13.5616V2.46576Z" fill="black"/>
<path d="M13.5616 0.246582H11.3425V2.46576H13.5616V0.246582Z" fill="black"/>
<path d="M11.3425 33.5342H9.12329V35.7534H11.3425V33.5342Z" fill="black"/>
<path d="M11.3425 31.3151H9.12329V33.5342H11.3425V31.3151Z" fill="black"/>
<path d="M11.3425 29.0959H9.12329V31.3151H11.3425V29.0959Z" fill="white"/>
<path d="M11.3425 26.8767H9.12329V29.0959H11.3425V26.8767Z" fill="white"/>
<path d="M11.3425 24.6575H9.12329V26.8767H11.3425V24.6575Z" fill="black"/>
<path d="M11.3425 22.4384H9.12329V24.6575H11.3425V22.4384Z" fill="black"/>
<path d="M11.3425 20.2192H9.12329V22.4384H11.3425V20.2192Z" fill="white"/>
<path d="M11.3425 18H9.12329V20.2192H11.3425V18Z" fill="white"/>
<path d="M11.3425 15.7808H9.12329V18H11.3425V15.7808Z" fill="white"/>
<path d="M11.3425 13.5616H9.12329V15.7808H11.3425V13.5616Z" fill="white"/>
<path d="M11.3425 11.3425H9.12329V13.5616H11.3425V11.3425Z" fill="white"/>
<path d="M11.3425 9.12329H9.12329V11.3425H11.3425V9.12329Z" fill="white"/>
<path d="M11.3425 6.90411H9.12329V9.12329H11.3425V6.90411Z" fill="white"/>
<path d="M11.3425 4.68494H9.12329V6.90412H11.3425V4.68494Z" fill="black"/>
<path d="M11.3425 2.46576H9.12329V4.68494H11.3425V2.46576Z" fill="black"/>
<path d="M11.3425 0.246582H9.12329V2.46576H11.3425V0.246582Z" fill="black"/>
<path d="M9.12329 33.5342H6.90411V35.7534H9.12329V33.5342Z" fill="black"/>
<path d="M9.12329 31.3151H6.90411V33.5342H9.12329V31.3151Z" fill="black"/>
<path d="M9.12329 29.0959H6.90411V31.3151H9.12329V29.0959Z" fill="black"/>
<path d="M9.12329 26.8767H6.90411V29.0959H9.12329V26.8767Z" fill="white"/>
<path d="M9.12329 24.6575H6.90411V26.8767H9.12329V24.6575Z" fill="black"/>
<path d="M9.12329 22.4384H6.90411V24.6575H9.12329V22.4384Z" fill="black"/>
<path d="M9.12329 20.2192H6.90411V22.4384H9.12329V20.2192Z" fill="black"/>
<path d="M9.12329 18H6.90411V20.2192H9.12329V18Z" fill="white"/>
<path d="M9.12329 15.7808H6.90411V18H9.12329V15.7808Z" fill="white"/>
<path d="M9.12329 13.5616H6.90411V15.7808H9.12329V13.5616Z" fill="white"/>
<path d="M9.12329 11.3425H6.90411V13.5616H9.12329V11.3425Z" fill="white"/>
<path d="M9.12329 9.12329H6.90411V11.3425H9.12329V9.12329Z" fill="white"/>
<path d="M9.12329 6.90411H6.90411V9.12329H9.12329V6.90411Z" fill="white"/>
<path d="M9.12329 4.68494H6.90411V6.90412H9.12329V4.68494Z" fill="white"/>
<path d="M9.12329 2.46576H6.90411V4.68494H9.12329V2.46576Z" fill="black"/>
<path d="M9.12329 0.246582H6.90411V2.46576H9.12329V0.246582Z" fill="black"/>
<path d="M6.90412 33.5342H4.68494V35.7534H6.90412V33.5342Z" fill="black"/>
<path d="M6.90412 31.3151H4.68494V33.5342H6.90412V31.3151Z" fill="black"/>
<path d="M6.90412 29.0959H4.68494V31.3151H6.90412V29.0959Z" fill="black"/>
<path d="M6.90412 26.8767H4.68494V29.0959H6.90412V26.8767Z" fill="black"/>
<path d="M6.90412 24.6575H4.68494V26.8767H6.90412V24.6575Z" fill="black"/>
<path d="M6.90412 22.4384H4.68494V24.6575H6.90412V22.4384Z" fill="black"/>
<path d="M6.90412 20.2192H4.68494V22.4384H6.90412V20.2192Z" fill="black"/>
<path d="M6.90412 18H4.68494V20.2192H6.90412V18Z" fill="black"/>
<path d="M6.90412 15.7808H4.68494V18H6.90412V15.7808Z" fill="white"/>
<path d="M6.90412 13.5616H4.68494V15.7808H6.90412V13.5616Z" fill="white"/>
<path d="M6.90412 11.3425H4.68494V13.5616H6.90412V11.3425Z" fill="white"/>
<path d="M6.90412 9.12329H4.68494V11.3425H6.90412V9.12329Z" fill="white"/>
<path d="M6.90412 6.90411H4.68494V9.12329H6.90412V6.90411Z" fill="white"/>
<path d="M6.90412 4.68494H4.68494V6.90412H6.90412V4.68494Z" fill="black"/>
<path d="M6.90412 2.46576H4.68494V4.68494H6.90412V2.46576Z" fill="black"/>
<path d="M6.90412 0.246582H4.68494V2.46576H6.90412V0.246582Z" fill="black"/>
<path d="M4.68494 33.5342H2.46576V35.7534H4.68494V33.5342Z" fill="white"/>
<path d="M4.68494 31.3151H2.46576V33.5342H4.68494V31.3151Z" fill="black"/>
<path d="M4.68494 29.0959H2.46576V31.3151H4.68494V29.0959Z" fill="black"/>
<path d="M4.68494 26.8767H2.46576V29.0959H4.68494V26.8767Z" fill="black"/>
<path d="M4.68494 24.6575H2.46576V26.8767H4.68494V24.6575Z" fill="black"/>
<path d="M4.68494 22.4384H2.46576V24.6575H4.68494V22.4384Z" fill="black"/>
<path d="M4.68494 20.2192H2.46576V22.4384H4.68494V20.2192Z" fill="black"/>
<path d="M4.68494 18H2.46576V20.2192H4.68494V18Z" fill="black"/>
<path d="M4.68494 15.7808H2.46576V18H4.68494V15.7808Z" fill="black"/>
<path d="M4.68494 13.5616H2.46576V15.7808H4.68494V13.5616Z" fill="black"/>
<path d="M4.68494 11.3425H2.46576V13.5616H4.68494V11.3425Z" fill="black"/>
<path d="M4.68494 9.12329H2.46576V11.3425H4.68494V9.12329Z" fill="black"/>
<path d="M4.68494 6.90411H2.46576V9.12329H4.68494V6.90411Z" fill="black"/>
<path d="M4.68494 4.68494H2.46576V6.90412H4.68494V4.68494Z" fill="black"/>
<path d="M4.68494 2.46576H2.46576V4.68494H4.68494V2.46576Z" fill="black"/>
<path d="M4.68494 0.246582H2.46576V2.46576H4.68494V0.246582Z" fill="white"/>
<path d="M2.46576 33.5342H0.246582V35.7534H2.46576V33.5342Z" fill="white"/>
<path d="M2.46576 31.3151H0.246582V33.5342H2.46576V31.3151Z" fill="white"/>
<path d="M2.46576 29.0959H0.246582V31.3151H2.46576V29.0959Z" fill="black"/>
<path d="M2.46576 26.8767H0.246582V29.0959H2.46576V26.8767Z" fill="black"/>
<path d="M2.46576 24.6575H0.246582V26.8767H2.46576V24.6575Z" fill="black"/>
<path d="M2.46576 22.4384H0.246582V24.6575H2.46576V22.4384Z" fill="black"/>
<path d="M2.46576 20.2192H0.246582V22.4384H2.46576V20.2192Z" fill="black"/>
<path d="M2.46576 18H0.246582V20.2192H2.46576V18Z" fill="black"/>
<path d="M2.46576 15.7808H0.246582V18H2.46576V15.7808Z" fill="black"/>
<path d="M2.46576 13.5616H0.246582V15.7808H2.46576V13.5616Z" fill="black"/>
<path d="M2.46576 11.3425H0.246582V13.5616H2.46576V11.3425Z" fill="black"/>
<path d="M2.46576 9.12329H0.246582V11.3425H2.46576V9.12329Z" fill="black"/>
<path d="M2.46576 6.90411H0.246582V9.12329H2.46576V6.90411Z" fill="black"/>
<path d="M2.46576 4.68494H0.246582V6.90412H2.46576V4.68494Z" fill="black"/>
<path d="M2.46576 2.46576H0.246582V4.68494H2.46576V2.46576Z" fill="white"/>
<path d="M2.46576 0.246582H0.246582V2.46576H2.46576V0.246582Z" fill="white"/>
</svg>
