<svg width="36" height="36" viewBox="0 0 36 36" fill="none" xmlns="http://www.w3.org/2000/svg">
<path d="M35.7534 29.0959H33.5342V31.3151H35.7534V29.0959Z" fill="black"/>
<path d="M35.7534 26.8767H33.5342V29.0959H35.7534V26.8767Z" fill="black"/>
<path d="M35.7534 24.6575H33.5342V26.8767H35.7534V24.6575Z" fill="black"/>
<path d="M35.7534 22.4384H33.5342V24.6575H35.7534V22.4384Z" fill="black"/>
<path d="M35.7534 20.2192H33.5342V22.4384H35.7534V20.2192Z" fill="black"/>
<path d="M35.7534 18H33.5342V20.2192H35.7534V18Z" fill="black"/>
<path d="M35.7534 15.7808H33.5342V18H35.7534V15.7808Z" fill="black"/>
<path d="M35.7534 13.5616H33.5342V15.7808H35.7534V13.5616Z" fill="black"/>
<path d="M35.7534 11.3425H33.5342V13.5616H35.7534V11.3425Z" fill="black"/>
<path d="M35.7534 9.12329H33.5342V11.3425H35.7534V9.12329Z" fill="black"/>
<path d="M35.7534 6.90411H33.5342V9.12329H35.7534V6.90411Z" fill="black"/>
<path d="M35.7534 4.68494H33.5342V6.90412H35.7534V4.68494Z" fill="black"/>
<path d="M33.5342 31.3151H31.3151V33.5342H33.5342V31.3151Z" fill="black"/>
<path d="M33.5342 29.0959H31.3151V31.3151H33.5342V29.0959Z" fill="black"/>
<path d="M33.5342 26.8767H31.3151V29.0959H33.5342V26.8767Z" fill="black"/>
<path d="M33.5342 24.6575H31.3151V26.8767H33.5342V24.6575Z" fill="black"/>
<path d="M33.5342 22.4384H31.3151V24.6575H33.5342V22.4384Z" fill="black"/>
<path d="M33.5342 20.2192H31.3151V22.4384H33.5342V20.2192Z" fill="black"/>
<path d="M33.5342 18H31.3151V20.2192H33.5342V18Z" fill="black"/>
<path d="M33.5342 15.7808H31.3151V18H33.5342V15.7808Z" fill="black"/>
<path d="M33.5342 13.5616H31.3151V15.7808H33.5342V13.5616Z" fill="black"/>
<path d="M33.5342 11.3425H31.3151V13.5616H33.5342V11.3425Z" fill="black"/>
<path d="M33.5342 9.12329H31.3151V11.3425H33.5342V9.12329Z" fill="black"/>
<path d="M33.5342 6.90411H31.3151V9.12329H33.5342V6.90411Z" fill="black"/>
<path d="M33.5342 4.68494H31.3151V6.90412H33.5342V4.68494Z" fill="black"/>
<path d="M33.5342 2.46576H31.3151V4.68494H33.5342V2.46576Z" fill="black"/>
<path d="M31.3151 33.5342H29.0959V35.7534H31.3151V33.5342Z" fill="black"/>
<path d="M31.3151 31.3151H29.0959V33.5342H31.3151V31.3151Z" fill="black"/>
<path d="M31.3151 29.0959H29.0959V31.3151H31.3151V29.0959Z" fill="black"/>
<path d="M31.3151 26.8767H29.0959V29.0959H31.3151V26.8767Z" fill="black"/>
<path d="M31.3151 24.6575H29.0959V26.8767H31.3151V24.6575Z" fill="black"/>
<path d="M31.3151 22.4384H29.0959V24.6575H31.3151V22.4384Z" fill="black"/>
<path d="M31.3151 20.2192H29.0959V22.4384H31.3151V20.2192Z" fill="black"/>
<path d="M31.3151 18H29.0959V20.2192H31.3151V18Z" fill="black"/>
<path d="M31.3151 4.68494H29.0959V6.90412H31.3151V4.68494Z" fill="black"/>
<path d="M31.3151 2.46576H29.0959V4.68494H31.3151V2.46576Z" fill="black"/>
<path d="M31.3151 0.246582H29.0959V2.46576H31.3151V0.246582Z" fill="black"/>
<path d="M29.0959 33.5342H26.8767V35.7534H29.0959V33.5342Z" fill="black"/>
<path d="M29.0959 31.3151H26.8767V33.5342H29.0959V31.3151Z" fill="black"/>
<path d="M29.0959 29.0959H26.8767V31.3151H29.0959V29.0959Z" fill="black"/>
<path d="M29.0959 26.8767H26.8767V29.0959H29.0959V26.8767Z" fill="black"/>
<path d="M29.0959 24.6575H26.8767V26.8767H29.0959V24.6575Z" fill="black"/>
<path d="M29.0959 22.4384H26.8767V24.6575H29.0959V22.4384Z" fill="black"/>
<path d="M29.0959 20.2192H26.8767V22.4384H29.0959V20.2192Z" fill="black"/>
<path d="M29.0959 2.46576H26.8767V4.68494H29.0959V2.46576Z" fill="black"/>
<path d="M29.0959 0.246582H26.8767V2.46576H29.0959V0.246582Z" fill="black"/>
<path d="M26.8767 33.5342H24.6575V35.7534H26.8767V33.5342Z" fill="black"/>
<path d="M26.8767 31.3151H24.6575V33.5342H26.8767V31.3151Z" fill="black"/>
<path d="M26.8767 29.0959H24.6575V31.3151H26.8767V29.0959Z" fill="black"/>
<path d="M26.8767 26.8767H24.6575V29.0959H26.8767V26.8767Z" fill="black"/>
<path d="M26.8767 24.6575H24.6575V26.8767H26.8767V24.6575Z" fill="black"/>
<path d="M26.8767 22.4384H24.6575V24.6575H26.8767V22.4384Z" fill="black"/>
<path d="M26.8767 4.68494H24.6575V6.90412H26.8767V4.68494Z" fill="black"/>
<path d="M26.8767 2.46576H24.6575V4.68494H26.8767V2.46576Z" fill="black"/>
<path d="M26.8767 0.246582H24.6575V2.46576H26.8767V0.246582Z" fill="black"/>
<path d="M24.6575 33.5342H22.4384V35.7534H24.6575V33.5342Z" fill="black"/>
<path d="M24.6575 31.3151H22.4384V33.5342H24.6575V31.3151Z" fill="black"/>
<path d="M24.6575 29.0959H22.4384V31.3151H24.6575V29.0959Z" fill="black"/>
<path d="M24.6575 26.8767H22.4384V29.0959H24.6575V26.8767Z" fill="black"/>
<path d="M24.6575 24.6575H22.4384V26.8767H24.6575V24.6575Z" fill="black"/>
<path d="M24.6575 22.4384H22.4384V24.6575H24.6575V22.4384Z" fill="black"/>
<path d="M24.6575 6.90411H22.4384V9.12329H24.6575V6.90411Z" fill="black"/>
<path d="M24.6575 4.68494H22.4384V6.90412H24.6575V4.68494Z" fill="black"/>
<path d="M24.6575 2.46576H22.4384V4.68494H24.6575V2.46576Z" fill="black"/>
<path d="M24.6575 0.246582H22.4384V2.46576H24.6575V0.246582Z" fill="black"/>
<path d="M22.4384 33.5342H20.2192V35.7534H22.4384V33.5342Z" fill="black"/>
<path d="M22.4384 22.4384H20.2192V24.6575H22.4384V22.4384Z" fill="black"/>
<path d="M22.4384 6.90411H20.2192V9.12329H22.4384V6.90411Z" fill="black"/>
<path d="M22.4384 4.68494H20.2192V6.90412H22.4384V4.68494Z" fill="black"/>
<path d="M22.4384 2.46576H20.2192V4.68494H22.4384V2.46576Z" fill="black"/>
<path d="M22.4384 0.246582H20.2192V2.46576H22.4384V0.246582Z" fill="black"/>
<path d="M20.2192 33.5342H18V35.7534H20.2192V33.5342Z" fill="black"/>
<path d="M20.2192 6.90411H18V9.12329H20.2192V6.90411Z" fill="black"/>
<path d="M20.2192 4.68494H18V6.90412H20.2192V4.68494Z" fill="black"/>
<path d="M20.2192 2.46576H18V4.68494H20.2192V2.46576Z" fill="black"/>
<path d="M20.2192 0.246582H18V2.46576H20.2192V0.246582Z" fill="black"/>
<path d="M18 33.5342H15.7808V35.7534H18V33.5342Z" fill="black"/>
<path d="M18 6.90411H15.7808V9.12329H18V6.90411Z" fill="black"/>
<path d="M18 4.68494H15.7808V6.90412H18V4.68494Z" fill="black"/>
<path d="M18 2.46576H15.7808V4.68494H18V2.46576Z" fill="black"/>
<path d="M18 0.246582H15.7808V2.46576H18V0.246582Z" fill="black"/>
<path d="M15.7808 33.5342H13.5616V35.7534H15.7808V33.5342Z" fill="black"/>
<path d="M15.7808 22.4384H13.5616V24.6575H15.7808V22.4384Z" fill="black"/>
<path d="M15.7808 6.90411H13.5616V9.12329H15.7808V6.90411Z" fill="black"/>
<path d="M15.7808 4.68494H13.5616V6.90412H15.7808V4.68494Z" fill="black"/>
<path d="M15.7808 2.46576H13.5616V4.68494H15.7808V2.46576Z" fill="black"/>
<path d="M15.7808 0.246582H13.5616V2.46576H15.7808V0.246582Z" fill="black"/>
<path d="M13.5616 33.5342H11.3425V35.7534H13.5616V33.5342Z" fill="black"/>
<path d="M13.5616 31.3151H11.3425V33.5342H13.5616V31.3151Z" fill="black"/>
<path d="M13.5616 26.8767H11.3425V29.0959H13.5616V26.8767Z" fill="black"/>
<path d="M13.5616 24.6575H11.3425V26.8767H13.5616V24.6575Z" fill="black"/>
<path d="M13.5616 22.4384H11.3425V24.6575H13.5616V22.4384Z" fill="black"/>
<path d="M13.5616 6.90411H11.3425V9.12329H13.5616V6.90411Z" fill="black"/>
<path d="M13.5616 4.68494H11.3425V6.90412H13.5616V4.68494Z" fill="black"/>
<path d="M13.5616 2.46576H11.3425V4.68494H13.5616V2.46576Z" fill="black"/>
<path d="M13.5616 0.246582H11.3425V2.46576H13.5616V0.246582Z" fill="black"/>
<path d="M11.3425 33.5342H9.12329V35.7534H11.3425V33.5342Z" fill="black"/>
<path d="M11.3425 31.3151H9.12329V33.5342H11.3425V31.3151Z" fill="black"/>
<path d="M11.3425 24.6575H9.12329V26.8767H11.3425V24.6575Z" fill="black"/>
<path d="M11.3425 22.4384H9.12329V24.6575H11.3425V22.4384Z" fill="black"/>
<path d="M11.3425 4.68494H9.12329V6.90412H11.3425V4.68494Z" fill="black"/>
<path d="M11.3425 2.46576H9.12329V4.68494H11.3425V2.46576Z" fill="black"/>
<path d="M11.3425 0.246582H9.12329V2.46576H11.3425V0.246582Z" fill="black"/>
<path d="M9.12329 33.5342H6.90411V35.7534H9.12329V33.5342Z" fill="black"/>
<path d="M9.12329 31.3151H6.90411V33.5342H9.12329V31.3151Z" fill="black"/>
<path d="M9.12329 29.0959H6.90411V31.3151H9.12329V29.0959Z" fill="black"/>
<path d="M9.12329 24.6575H6.90411V26.8767H9.12329V24.6575Z" fill="black"/>
<path d="M9.12329 22.4384H6.90411V24.6575H9.12329V22.4384Z" fill="black"/>
<path d="M9.12329 20.2192H6.90411V22.4384H9.12329V20.2192Z" fill="black"/>
<path d="M9.12329 2.46576H6.90411V4.68494H9.12329V2.46576Z" fill="black"/>
<path d="M9.12329 0.246582H6.90411V2.46576H9.12329V0.246582Z" fill="black"/>
<path d="M6.90412 33.5342H4.68494V35.7534H6.90412V33.5342Z" fill="black"/>
<path d="M6.90412 31.3151H4.68494V33.5342H6.90412V31.3151Z" fill="black"/>
<path d="M6.90412 29.0959H4.68494V31.3151H6.90412V29.0959Z" fill="black"/>
<path d="M6.90412 26.8767H4.68494V29.0959H6.90412V26.8767Z" fill="black"/>
<path d="M6.90412 24.6575H4.68494V26.8767H6.90412V24.6575Z" fill="black"/>
<path d="M6.90412 22.4384H4.68494V24.6575H6.90412V22.4384Z" fill="black"/>
<path d="M6.90412 20.2192H4.68494V22.4384H6.90412V20.2192Z" fill="black"/>
<path d="M6.90412 18H4.68494V20.2192H6.90412V18Z" fill="black"/>
<path d="M6.90412 4.68494H4.68494V6.90412H6.90412V4.68494Z" fill="black"/>
<path d="M6.90412 2.46576H4.68494V4.68494H6.90412V2.46576Z" fill="black"/>
<path d="M6.90412 0.246582H4.68494V2.46576H6.90412V0.246582Z" fill="black"/>
<path d="M4.68494 31.3151H2.46576V33.5342H4.68494V31.3151Z" fill="black"/>
<path d="M4.68494 29.0959H2.46576V31.3151H4.68494V29.0959Z" fill="black"/>
<path d="M4.68494 26.8767H2.46576V29.0959H4.68494V26.8767Z" fill="black"/>
<path d="M4.68494 24.6575H2.46576V26.8767H4.68494V24.6575Z" fill="black"/>
<path d="M4.68494 22.4384H2.46576V24.6575H4.68494V22.4384Z" fill="black"/>
<path d="M4.68494 20.2192H2.46576V22.4384H4.68494V20.2192Z" fill="black"/>
<path d="M4.68494 18H2.46576V20.2192H4.68494V18Z" fill="black"/>
<path d="M4.68494 15.7808H2.46576V18H4.68494V15.7808Z" fill="black"/>
<path d="M4.68494 13.5616H2.46576V15.7808H4.68494V13.5616Z" fill="black"/>
<path d="M4.68494 11.3425H2.46576V13.5616H4.68494V11.3425Z" fill="black"/>
<path d="M4.68494 9.12329H2.46576V11.3425H4.68494V9.12329Z" fill="black"/>
<path d="M4.68494 6.90411H2.46576V9.12329H4.68494V6.90411Z" fill="black"/>
<path d="M4.68494 4.68494H2.46576V6.90412H4.68494V4.68494Z" fill="black"/>
<path d="M4.68494 2.46576H2.46576V4.68494H4.68494V2.46576Z" fill="black"/>
<path d="M2.46576 29.0959H0.246582V31.3151H2.46576V29.0959Z" fill="black"/>
<path d="M2.46576 26.8767H0.246582V29.0959H2.46576V26.8767Z" fill="black"/>
<path d="M2.46576 24.6575H0.246582V26.8767H2.46576V24.6575Z" fill="black"/>
<path d="M2.46576 22.4384H0.246582V24.6575H2.46576V22.4384Z" fill="black"/>
<path d="M2.46576 20.2192H0.246582V22.4384H2.46576V20.2192Z" fill="black"/>
<path d="M2.46576 18H0.246582V20.2192H2.46576V18Z" fill="black"/>
<path d="M2.46576 15.7808H0.246582V18H2.46576V15.7808Z" fill="black"/>
<path d="M2.46576 13.5616H0.246582V15.7808H2.46576V13.5616Z" fill="black"/>
<path d="M2.46576 11.3425H0.246582V13.5616H2.46576V11.3425Z" fill="black"/>
<path d="M2.46576 9.12329H0.246582V11.3425H2.46576V9.12329Z" fill="black"/>
<path d="M2.46576 6.90411H0.246582V9.12329H2.46576V6.90411Z" fill="black"/>
<path d="M2.46576 4.68494H0.246582V6.90412H2.46576V4.68494Z" fill="black"/>
</svg>
