<svg width="710" height="205" viewBox="0 0 710 205" fill="none" xmlns="http://www.w3.org/2000/svg">
<g filter="url(#filter0_d)">
<path d="M126.395 88.1094H136.801V98.5156H147.207V108.922H136.801V140H126.395V88.1094ZM168.02 88.1094H178.426V140H168.02V108.922H157.613V98.5156H168.02V88.1094ZM147.207 108.922H157.613V119.328H147.207V108.922ZM197.621 88.1094H228.84V98.5156H197.621V88.1094ZM187.215 98.5156H197.621V108.922H228.84V98.5156H239.246V140H228.84V119.328H197.621V140H187.215V98.5156ZM248.035 88.1094H300.066V98.5156H289.66V108.922H279.254V98.5156H248.035V88.1094ZM268.848 108.922H279.254V119.328H268.848V108.922ZM258.441 119.328H268.848V129.734H300.066V140H248.035V129.734H258.441V119.328ZM308.855 88.1094H360.887V98.5156H319.262V108.922H350.48V119.328H319.262V129.734H360.887V140H308.855V88.1094Z" fill="black"/>
<path d="M429.583 46.3086H467.161V121.465H448.372V65.0977H429.583V46.3086ZM373.216 83.8867H392.005V121.465H373.216V83.8867ZM392.005 121.465H448.372V140H392.005V121.465ZM501.819 46.3086H576.976V65.0977H501.819V46.3086ZM483.03 65.0977H501.819V83.8867H483.03V65.0977ZM501.819 83.8867H558.187V102.676H501.819V83.8867ZM558.187 102.676H576.976V121.465H558.187V102.676ZM483.03 121.465H558.187V140H483.03V121.465Z" fill="#FCE196"/>
</g>
<path d="M13.3234 180.592C10.4289 179.76 8.31952 178.74 6.9953 177.533C5.6828 176.314 5.02655 174.814 5.02655 173.033C5.02655 171.018 5.82928 169.354 7.43475 168.041C9.05194 166.717 11.1496 166.055 13.7277 166.055C15.4855 166.055 17.05 166.395 18.4211 167.074C19.8039 167.754 20.8703 168.691 21.6203 169.887C22.382 171.082 22.7629 172.389 22.7629 173.807H19.3703C19.3703 172.26 18.8781 171.047 17.8937 170.168C16.9094 169.277 15.5207 168.832 13.7277 168.832C12.0637 168.832 10.7629 169.201 9.82538 169.939C8.8996 170.666 8.43671 171.68 8.43671 172.98C8.43671 174.023 8.87616 174.908 9.75507 175.635C10.6457 176.35 12.1516 177.006 14.2726 177.604C16.4055 178.201 18.0695 178.863 19.2648 179.59C20.4719 180.305 21.3625 181.143 21.9367 182.104C22.5226 183.064 22.8156 184.195 22.8156 185.496C22.8156 187.57 22.007 189.234 20.3898 190.488C18.7726 191.73 16.6105 192.352 13.9035 192.352C12.1457 192.352 10.5051 192.018 8.98163 191.35C7.45819 190.67 6.28046 189.744 5.44843 188.572C4.62811 187.4 4.21796 186.07 4.21796 184.582H7.61053C7.61053 186.129 8.17889 187.354 9.31561 188.256C10.4641 189.146 11.9933 189.592 13.9035 189.592C15.6848 189.592 17.05 189.229 17.9992 188.502C18.9484 187.775 19.423 186.785 19.423 185.531C19.423 184.277 18.9836 183.311 18.1047 182.631C17.2258 181.939 15.632 181.26 13.3234 180.592ZM41.9863 182.314C41.9863 180.451 42.3496 178.775 43.0762 177.287C43.8144 175.799 44.834 174.65 46.1348 173.842C47.4473 173.033 48.9414 172.629 50.6172 172.629C53.207 172.629 55.2988 173.525 56.8926 175.318C58.498 177.111 59.3008 179.496 59.3008 182.473V182.701C59.3008 184.553 58.9433 186.217 58.2285 187.693C57.5254 189.158 56.5117 190.301 55.1875 191.121C53.875 191.941 52.3633 192.352 50.6523 192.352C48.0742 192.352 45.9824 191.455 44.3769 189.662C42.7832 187.869 41.9863 185.496 41.9863 182.543V182.314ZM45.2558 182.701C45.2558 184.811 45.7422 186.504 46.7148 187.781C47.6992 189.059 49.0117 189.697 50.6523 189.697C52.3047 189.697 53.6172 189.053 54.5898 187.764C55.5625 186.463 56.0488 184.646 56.0488 182.314C56.0488 180.229 55.5508 178.541 54.5547 177.252C53.5703 175.951 52.2578 175.301 50.6172 175.301C49.0117 175.301 47.7168 175.939 46.7324 177.217C45.748 178.494 45.2558 180.322 45.2558 182.701ZM83.1121 192H79.8601V165H83.1121V192ZM110.808 187.588L115.519 172.98H118.841L112.021 192H109.543L102.652 172.98H105.974L110.808 187.588ZM145.817 192.352C143.239 192.352 141.141 191.508 139.524 189.82C137.907 188.121 137.098 185.854 137.098 183.018V182.42C137.098 180.533 137.455 178.852 138.17 177.375C138.897 175.887 139.905 174.727 141.194 173.895C142.495 173.051 143.901 172.629 145.412 172.629C147.885 172.629 149.807 173.443 151.178 175.072C152.549 176.701 153.235 179.033 153.235 182.068V183.422H140.35C140.397 185.297 140.942 186.814 141.985 187.975C143.039 189.123 144.375 189.697 145.993 189.697C147.141 189.697 148.114 189.463 148.911 188.994C149.707 188.525 150.405 187.904 151.002 187.131L152.989 188.678C151.395 191.127 149.004 192.352 145.817 192.352ZM145.412 175.301C144.1 175.301 142.998 175.781 142.108 176.742C141.217 177.691 140.666 179.027 140.455 180.75H149.983V180.504C149.889 178.852 149.444 177.574 148.647 176.672C147.85 175.758 146.772 175.301 145.412 175.301ZM173.284 190.295C173.284 189.732 173.448 189.264 173.777 188.889C174.116 188.514 174.62 188.326 175.288 188.326C175.956 188.326 176.46 188.514 176.8 188.889C177.152 189.264 177.327 189.732 177.327 190.295C177.327 190.834 177.152 191.285 176.8 191.648C176.46 192.012 175.956 192.193 175.288 192.193C174.62 192.193 174.116 192.012 173.777 191.648C173.448 191.285 173.284 190.834 173.284 190.295ZM224.546 192V166.406H232.913C235.69 166.406 237.776 166.98 239.171 168.129C240.577 169.277 241.28 170.977 241.28 173.227C241.28 174.422 240.94 175.482 240.261 176.408C239.581 177.322 238.655 178.031 237.483 178.535C238.866 178.922 239.956 179.66 240.753 180.75C241.561 181.828 241.966 183.117 241.966 184.617C241.966 186.914 241.221 188.719 239.733 190.031C238.245 191.344 236.141 192 233.423 192H224.546ZM227.921 180.029V189.24H233.493C235.063 189.24 236.3 188.836 237.202 188.027C238.116 187.207 238.573 186.082 238.573 184.652C238.573 181.57 236.897 180.029 233.546 180.029H227.921ZM227.921 177.322H233.018C234.495 177.322 235.673 176.953 236.552 176.215C237.442 175.477 237.887 174.475 237.887 173.209C237.887 171.803 237.477 170.783 236.657 170.15C235.837 169.506 234.589 169.184 232.913 169.184H227.921V177.322ZM274.408 190.119C273.142 191.607 271.285 192.352 268.836 192.352C266.808 192.352 265.261 191.766 264.195 190.594C263.14 189.41 262.607 187.664 262.595 185.355V172.98H265.847V185.268C265.847 188.15 267.019 189.592 269.363 189.592C271.847 189.592 273.5 188.666 274.32 186.814V172.98H277.572V192H274.478L274.408 190.119ZM302.262 192H299.01V172.98H302.262V192ZM298.746 167.936C298.746 167.408 298.905 166.963 299.221 166.6C299.549 166.236 300.03 166.055 300.663 166.055C301.295 166.055 301.776 166.236 302.104 166.6C302.432 166.963 302.596 167.408 302.596 167.936C302.596 168.463 302.432 168.902 302.104 169.254C301.776 169.605 301.295 169.781 300.663 169.781C300.03 169.781 299.549 169.605 299.221 169.254C298.905 168.902 298.746 168.463 298.746 167.936ZM327.216 192H323.964V165H327.216V192ZM347.846 182.332C347.846 179.414 348.537 177.07 349.92 175.301C351.303 173.52 353.113 172.629 355.352 172.629C357.578 172.629 359.342 173.391 360.643 174.914V165H363.895V192H360.906L360.748 189.961C359.447 191.555 357.637 192.352 355.316 192.352C353.113 192.352 351.314 191.449 349.92 189.645C348.537 187.84 347.846 185.484 347.846 182.578V182.332ZM351.098 182.701C351.098 184.857 351.543 186.545 352.434 187.764C353.324 188.982 354.555 189.592 356.125 189.592C358.188 189.592 359.693 188.666 360.643 186.814V178.078C359.67 176.285 358.176 175.389 356.16 175.389C354.566 175.389 353.324 176.004 352.434 177.234C351.543 178.465 351.098 180.287 351.098 182.701ZM385.227 190.295C385.227 189.732 385.391 189.264 385.72 188.889C386.059 188.514 386.563 188.326 387.231 188.326C387.899 188.326 388.403 188.514 388.743 188.889C389.095 189.264 389.27 189.732 389.27 190.295C389.27 190.834 389.095 191.285 388.743 191.648C388.403 192.012 387.899 192.193 387.231 192.193C386.563 192.193 386.059 192.012 385.72 191.648C385.391 191.285 385.227 190.834 385.227 190.295ZM455.385 188.643C454.518 189.885 453.305 190.816 451.746 191.438C450.2 192.047 448.395 192.352 446.332 192.352C444.246 192.352 442.395 191.865 440.778 190.893C439.161 189.908 437.907 188.514 437.016 186.709C436.137 184.904 435.686 182.812 435.663 180.434V178.201C435.663 174.346 436.559 171.357 438.352 169.236C440.157 167.115 442.688 166.055 445.946 166.055C448.618 166.055 450.768 166.74 452.397 168.111C454.026 169.471 455.022 171.404 455.385 173.912H452.01C451.377 170.525 449.362 168.832 445.963 168.832C443.702 168.832 441.985 169.629 440.813 171.223C439.653 172.805 439.067 175.102 439.055 178.113V180.205C439.055 183.076 439.711 185.361 441.024 187.061C442.336 188.748 444.112 189.592 446.35 189.592C447.616 189.592 448.723 189.451 449.672 189.17C450.621 188.889 451.407 188.414 452.028 187.746V181.998H446.104V179.256H455.385V188.643ZM484.611 192.352C482.032 192.352 479.935 191.508 478.318 189.82C476.7 188.121 475.892 185.854 475.892 183.018V182.42C475.892 180.533 476.249 178.852 476.964 177.375C477.691 175.887 478.698 174.727 479.987 173.895C481.288 173.051 482.695 172.629 484.206 172.629C486.679 172.629 488.601 173.443 489.972 175.072C491.343 176.701 492.029 179.033 492.029 182.068V183.422H479.144C479.191 185.297 479.736 186.814 480.779 187.975C481.833 189.123 483.169 189.697 484.786 189.697C485.935 189.697 486.907 189.463 487.704 188.994C488.501 188.525 489.198 187.904 489.796 187.131L491.782 188.678C490.189 191.127 487.798 192.352 484.611 192.352ZM484.206 175.301C482.894 175.301 481.792 175.781 480.902 176.742C480.011 177.691 479.46 179.027 479.249 180.75H488.777V180.504C488.683 178.852 488.237 177.574 487.441 176.672C486.644 175.758 485.566 175.301 484.206 175.301ZM516.42 168.375V172.98H519.971V175.494H516.42V187.289C516.42 188.051 516.578 188.625 516.895 189.012C517.211 189.387 517.75 189.574 518.512 189.574C518.887 189.574 519.402 189.504 520.059 189.363V192C519.203 192.234 518.371 192.352 517.562 192.352C516.109 192.352 515.014 191.912 514.275 191.033C513.537 190.154 513.168 188.906 513.168 187.289V175.494H509.705V172.98H513.168V168.375H516.42ZM569.017 189.24H581.146V192H565.625V166.406H569.017V189.24ZM599.825 182.314C599.825 180.451 600.188 178.775 600.914 177.287C601.653 175.799 602.672 174.65 603.973 173.842C605.286 173.033 606.78 172.629 608.455 172.629C611.045 172.629 613.137 173.525 614.731 175.318C616.336 177.111 617.139 179.496 617.139 182.473V182.701C617.139 184.553 616.782 186.217 616.067 187.693C615.364 189.158 614.35 190.301 613.026 191.121C611.713 191.941 610.202 192.352 608.491 192.352C605.912 192.352 603.821 191.455 602.215 189.662C600.621 187.869 599.825 185.496 599.825 182.543V182.314ZM603.094 182.701C603.094 184.811 603.58 186.504 604.553 187.781C605.537 189.059 606.85 189.697 608.491 189.697C610.143 189.697 611.455 189.053 612.428 187.764C613.401 186.463 613.887 184.646 613.887 182.314C613.887 180.229 613.389 178.541 612.393 177.252C611.409 175.951 610.096 175.301 608.455 175.301C606.85 175.301 605.555 175.939 604.571 177.217C603.586 178.494 603.094 180.322 603.094 182.701ZM648.491 186.955C648.491 186.076 648.157 185.396 647.489 184.916C646.833 184.424 645.679 184.002 644.027 183.65C642.386 183.299 641.079 182.877 640.107 182.385C639.146 181.893 638.431 181.307 637.962 180.627C637.505 179.947 637.277 179.139 637.277 178.201C637.277 176.643 637.933 175.324 639.245 174.246C640.57 173.168 642.257 172.629 644.308 172.629C646.464 172.629 648.21 173.186 649.546 174.299C650.894 175.412 651.568 176.836 651.568 178.57H648.298C648.298 177.68 647.917 176.912 647.155 176.268C646.405 175.623 645.456 175.301 644.308 175.301C643.124 175.301 642.198 175.559 641.53 176.074C640.862 176.59 640.529 177.264 640.529 178.096C640.529 178.881 640.839 179.473 641.46 179.871C642.081 180.27 643.2 180.65 644.818 181.014C646.446 181.377 647.765 181.811 648.773 182.314C649.78 182.818 650.525 183.428 651.005 184.143C651.497 184.846 651.743 185.707 651.743 186.727C651.743 188.426 651.064 189.791 649.704 190.822C648.345 191.842 646.581 192.352 644.413 192.352C642.89 192.352 641.542 192.082 640.37 191.543C639.198 191.004 638.279 190.254 637.611 189.293C636.954 188.32 636.626 187.271 636.626 186.146H639.878C639.937 187.236 640.37 188.104 641.179 188.748C641.999 189.381 643.077 189.697 644.413 189.697C645.644 189.697 646.628 189.451 647.366 188.959C648.116 188.455 648.491 187.787 648.491 186.955ZM676.592 168.375V172.98H680.143V175.494H676.592V187.289C676.592 188.051 676.75 188.625 677.066 189.012C677.383 189.387 677.922 189.574 678.684 189.574C679.059 189.574 679.574 189.504 680.23 189.363V192C679.375 192.234 678.543 192.352 677.734 192.352C676.281 192.352 675.186 191.912 674.447 191.033C673.709 190.154 673.34 188.906 673.34 187.289V175.494H669.877V172.98H673.34V168.375H676.592ZM700.227 190.295C700.227 189.732 700.391 189.264 700.72 188.889C701.059 188.514 701.563 188.326 702.231 188.326C702.899 188.326 703.403 188.514 703.743 188.889C704.095 189.264 704.27 189.732 704.27 190.295C704.27 190.834 704.095 191.285 703.743 191.648C703.403 192.012 702.899 192.193 702.231 192.193C701.563 192.193 701.059 192.012 700.72 191.648C700.391 191.285 700.227 190.834 700.227 190.295Z" fill="black"/>
<defs>
<filter id="filter0_d" x="126.395" y="46.3086" width="458.581" height="101.691" filterUnits="userSpaceOnUse" color-interpolation-filters="sRGB">
<feFlood flood-opacity="0" result="BackgroundImageFix"/>
<feColorMatrix in="SourceAlpha" type="matrix" values="0 0 0 0 0 0 0 0 0 0 0 0 0 0 0 0 0 0 127 0"/>
<feOffset dx="4" dy="4"/>
<feGaussianBlur stdDeviation="2"/>
<feColorMatrix type="matrix" values="0 0 0 0 0 0 0 0 0 0 0 0 0 0 0 0 0 0 0.25 0"/>
<feBlend mode="normal" in2="BackgroundImageFix" result="effect1_dropShadow"/>
<feBlend mode="normal" in="SourceGraphic" in2="effect1_dropShadow" result="shape"/>
</filter>
</defs>
</svg>
