<svg width="113" height="113" viewBox="0 0 113 113" fill="none" xmlns="http://www.w3.org/2000/svg">
<g clip-path="url(#clip0)">
<path d="M113.003 84.7514H107.351V90.4H113.003V84.7514Z" fill="black"/>
<path d="M113.003 79.1H107.351V84.7514H113.003V79.1Z" fill="black"/>
<path d="M113.003 73.4486H107.351V79.0972H113.003V73.4486Z" fill="black"/>
<path d="M113.003 67.8H107.351V73.4486H113.003V67.8Z" fill="black"/>
<path d="M113.003 62.1486H107.351V67.8H113.003V62.1486Z" fill="black"/>
<path d="M113.003 56.5H107.351V62.1486H113.003V56.5Z" fill="black"/>
<path d="M113.003 50.8486H107.351V56.4972H113.003V50.8486Z" fill="black"/>
<path d="M113.003 45.2H107.351V50.8514H113.003V45.2Z" fill="black"/>
<path d="M113.003 39.5486H107.351V45.1972H113.003V39.5486Z" fill="black"/>
<path d="M113.003 33.9H107.351V39.5514H113.003V33.9Z" fill="black"/>
<path d="M113.003 28.2514H107.351V33.9H113.003V28.2514Z" fill="black"/>
<path d="M113.003 22.6H107.351V28.2514H113.003V22.6Z" fill="black"/>
<path d="M107.351 90.4H101.7V96.0514H107.351V90.4Z" fill="black"/>
<path d="M107.351 84.7514H101.7V90.4H107.351V84.7514Z" fill="#FCE196"/>
<path d="M107.351 79.1H101.7V84.7514H107.351V79.1Z" fill="#FCE196"/>
<path d="M107.351 73.4486H101.7V79.0972H107.351V73.4486Z" fill="#FCE196"/>
<path d="M107.351 67.8H101.7V73.4486H107.351V67.8Z" fill="#FCE196"/>
<path d="M107.351 62.1486H101.7V67.8H107.351V62.1486Z" fill="#FCE196"/>
<path d="M107.351 56.5H101.7V62.1486H107.351V56.5Z" fill="#FCE196"/>
<path d="M107.351 50.8486H101.7V56.4972H107.351V50.8486Z" fill="#FCE196"/>
<path d="M107.351 45.2H101.7V50.8514H107.351V45.2Z" fill="#FCE196"/>
<path d="M107.351 39.5486H101.7V45.1972H107.351V39.5486Z" fill="#FCE196"/>
<path d="M107.351 33.9H101.7V39.5514H107.351V33.9Z" fill="#FCE196"/>
<path d="M107.351 28.2514H101.7V33.9H107.351V28.2514Z" fill="#FCE196"/>
<path d="M107.351 22.6H101.7V28.2514H107.351V22.6Z" fill="#FCE196"/>
<path d="M107.351 16.9486H101.7V22.6H107.351V16.9486Z" fill="black"/>
<path d="M101.7 96.0514H96.0486V101.7H101.7V96.0514Z" fill="black"/>
<path d="M101.7 90.4H96.0486V96.0514H101.7V90.4Z" fill="#FCE196"/>
<path d="M101.7 84.7514H96.0486V90.4H101.7V84.7514Z" fill="#FCE196"/>
<path d="M101.7 79.1H96.0486V84.7514H101.7V79.1Z" fill="#FCE196"/>
<path d="M101.7 73.4486H96.0486V79.0972H101.7V73.4486Z" fill="#FCE196"/>
<path d="M101.7 67.8H96.0486V73.4486H101.7V67.8Z" fill="#FCE196"/>
<path d="M101.7 62.1486H96.0486V67.8H101.7V62.1486Z" fill="#FCE196"/>
<path d="M101.7 56.5H96.0486V62.1486H101.7V56.5Z" fill="#FCE196"/>
<path d="M101.7 50.8486H96.0486V56.4972H101.7V50.8486Z" fill="#FCE196"/>
<path d="M101.7 45.2H96.0486V50.8514H101.7V45.2Z" fill="#FCE196"/>
<path d="M101.7 39.5486H96.0486V45.1972H101.7V39.5486Z" fill="#FCE196"/>
<path d="M101.7 33.9H96.0486V39.5514H101.7V33.9Z" fill="#FCE196"/>
<path d="M101.7 28.2514H96.0486V33.9H101.7V28.2514Z" fill="#FCE196"/>
<path d="M101.7 22.6H96.0486V28.2514H101.7V22.6Z" fill="#FCE196"/>
<path d="M101.7 16.9486H96.0486V22.6H101.7V16.9486Z" fill="#FCE196"/>
<path d="M101.7 11.3H96.0486V16.9486H101.7V11.3Z" fill="black"/>
<path d="M96.0514 101.7H90.4V107.349H96.0514V101.7Z" fill="black"/>
<path d="M96.0514 96.0514H90.4V101.7H96.0514V96.0514Z" fill="#FCE196"/>
<path d="M96.0514 90.4H90.4V96.0514H96.0514V90.4Z" fill="#FCE196"/>
<path d="M96.0514 84.7514H90.4V90.4H96.0514V84.7514Z" fill="#FCE196"/>
<path d="M96.0514 79.1H90.4V84.7514H96.0514V79.1Z" fill="#FCE196"/>
<path d="M96.0514 73.4486H90.4V79.0972H96.0514V73.4486Z" fill="#FCE196"/>
<path d="M96.0514 67.8H90.4V73.4486H96.0514V67.8Z" fill="#FCE196"/>
<path d="M96.0514 62.1486H90.4V67.8H96.0514V62.1486Z" fill="#FCE196"/>
<path d="M96.0514 56.5H90.4V62.1486H96.0514V56.5Z" fill="#FCE196"/>
<path d="M96.0514 50.8486H90.4V56.4972H96.0514V50.8486Z" fill="#FCE196"/>
<path d="M96.0514 45.2H90.4V50.8514H96.0514V45.2Z" fill="#FCE196"/>
<path d="M96.0514 39.5486H90.4V45.1972H96.0514V39.5486Z" fill="#FCE196"/>
<path d="M96.0514 33.9H90.4V39.5514H96.0514V33.9Z" fill="#FCE196"/>
<path d="M96.0514 28.2514H90.4V33.9H96.0514V28.2514Z" fill="#FCE196"/>
<path d="M96.0514 22.6H90.4V28.2514H96.0514V22.6Z" fill="#FCE196"/>
<path d="M96.0514 16.9486H90.4V22.6H96.0514V16.9486Z" fill="#FCE196"/>
<path d="M96.0514 11.3H90.4V16.9486H96.0514V11.3Z" fill="#FCE196"/>
<path d="M96.0514 5.64859H90.4V11.3H96.0514V5.64859Z" fill="black"/>
<path d="M90.4 107.349H84.7515V113H90.4V107.349Z" fill="black"/>
<path d="M90.4 101.7H84.7515V107.349H90.4V101.7Z" fill="#FCE196"/>
<path d="M90.4 96.0514H84.7515V101.7H90.4V96.0514Z" fill="#FCE196"/>
<path d="M90.4 90.4H84.7515V96.0514H90.4V90.4Z" fill="#FCE196"/>
<path d="M90.4 84.7514H84.7515V90.4H90.4V84.7514Z" fill="#FCE196"/>
<path d="M90.4 79.1H84.7515V84.7514H90.4V79.1Z" fill="#FCE196"/>
<path d="M90.4 73.4486H84.7515V79.0972H90.4V73.4486Z" fill="#FCE196"/>
<path d="M90.4 67.8H84.7515V73.4486H90.4V67.8Z" fill="#FCE196"/>
<path d="M90.4 62.1486H84.7515V67.8H90.4V62.1486Z" fill="#FCE196"/>
<path d="M90.4 56.5H84.7515V62.1486H90.4V56.5Z" fill="#FCE196"/>
<path d="M90.4 50.8486H84.7515V56.4972H90.4V50.8486Z" fill="#FCE196"/>
<path d="M90.4 45.2H84.7515V50.8514H90.4V45.2Z" fill="#FCE196"/>
<path d="M90.4 39.5486H84.7515V45.1972H90.4V39.5486Z" fill="#FCE196"/>
<path d="M90.4 33.9H84.7515V39.5514H90.4V33.9Z" fill="#FCE196"/>
<path d="M90.4 28.2514H84.7515V33.9H90.4V28.2514Z" fill="#FCE196"/>
<path d="M90.4 22.6H84.7515V28.2514H90.4V22.6Z" fill="#FCE196"/>
<path d="M90.4 16.9486H84.7515V22.6H90.4V16.9486Z" fill="#FCE196"/>
<path d="M90.4 11.3H84.7515V16.9486H90.4V11.3Z" fill="#FCE196"/>
<path d="M90.4 5.64859H84.7515V11.3H90.4V5.64859Z" fill="#FCE196"/>
<path d="M90.4 0H84.7515V5.64859H90.4V0Z" fill="black"/>
<path d="M84.7514 107.349H79.1V113H84.7514V107.349Z" fill="black"/>
<path d="M84.7514 101.7H79.1V107.349H84.7514V101.7Z" fill="#FCE196"/>
<path d="M84.7514 96.0514H79.1V101.7H84.7514V96.0514Z" fill="#FCE196"/>
<path d="M84.7514 90.4H79.1V96.0514H84.7514V90.4Z" fill="#FCE196"/>
<path d="M84.7514 84.7514H79.1V90.4H84.7514V84.7514Z" fill="#FCE196"/>
<path d="M84.7514 79.1H79.1V84.7514H84.7514V79.1Z" fill="#FCE196"/>
<path d="M84.7514 73.4486H79.1V79.0972H84.7514V73.4486Z" fill="#FCE196"/>
<path d="M84.7514 67.8H79.1V73.4486H84.7514V67.8Z" fill="#FCE196"/>
<path d="M84.7514 62.1486H79.1V67.8H84.7514V62.1486Z" fill="#FCE196"/>
<path d="M84.7514 56.5H79.1V62.1486H84.7514V56.5Z" fill="#FCE196"/>
<path d="M84.7514 50.8486H79.1V56.4972H84.7514V50.8486Z" fill="#FCE196"/>
<path d="M84.7514 45.2H79.1V50.8514H84.7514V45.2Z" fill="#FCE196"/>
<path d="M84.7514 39.5486H79.1V45.1972H84.7514V39.5486Z" fill="#FCE196"/>
<path d="M84.7514 33.9H79.1V39.5514H84.7514V33.9Z" fill="#FCE196"/>
<path d="M84.7514 28.2514H79.1V33.9H84.7514V28.2514Z" fill="#FCE196"/>
<path d="M84.7514 22.6H79.1V28.2514H84.7514V22.6Z" fill="#FCE196"/>
<path d="M84.7514 16.9486H79.1V22.6H84.7514V16.9486Z" fill="#FCE196"/>
<path d="M84.7514 11.3H79.1V16.9486H84.7514V11.3Z" fill="#FCE196"/>
<path d="M84.7514 5.64859H79.1V11.3H84.7514V5.64859Z" fill="#FCE196"/>
<path d="M84.7514 0H79.1V5.64859H84.7514V0Z" fill="black"/>
<path d="M79.1028 107.349H73.4514V113H79.1028V107.349Z" fill="black"/>
<path d="M79.1028 101.7H73.4514V107.349H79.1028V101.7Z" fill="#FCE196"/>
<path d="M79.1028 96.0514H73.4514V101.7H79.1028V96.0514Z" fill="#FCE196"/>
<path d="M79.1028 90.4H73.4514V96.0514H79.1028V90.4Z" fill="#FCE196"/>
<path d="M79.1028 84.7514H73.4514V90.4H79.1028V84.7514Z" fill="#FCE196"/>
<path d="M79.1028 79.1H73.4514V84.7514H79.1028V79.1Z" fill="#FCE196"/>
<path d="M79.1028 73.4486H73.4514V79.0972H79.1028V73.4486Z" fill="#FCE196"/>
<path d="M79.1028 67.8H73.4514V73.4486H79.1028V67.8Z" fill="#FCE196"/>
<path d="M79.1028 62.1486H73.4514V67.8H79.1028V62.1486Z" fill="#FCE196"/>
<path d="M79.1028 56.5H73.4514V62.1486H79.1028V56.5Z" fill="#FCE196"/>
<path d="M79.1028 50.8486H73.4514V56.4972H79.1028V50.8486Z" fill="white"/>
<path d="M79.1028 45.2H73.4514V50.8514H79.1028V45.2Z" fill="#FCE196"/>
<path d="M79.1028 39.5486H73.4514V45.1972H79.1028V39.5486Z" fill="#FCE196"/>
<path d="M79.1028 33.9H73.4514V39.5514H79.1028V33.9Z" fill="#FCE196"/>
<path d="M79.1028 28.2514H73.4514V33.9H79.1028V28.2514Z" fill="#FCE196"/>
<path d="M79.1028 22.6H73.4514V28.2514H79.1028V22.6Z" fill="#FCE196"/>
<path d="M79.1028 16.9486H73.4514V22.6H79.1028V16.9486Z" fill="#FCE196"/>
<path d="M79.1028 11.3H73.4514V16.9486H79.1028V11.3Z" fill="#FCE196"/>
<path d="M79.1028 5.64859H73.4514V11.3H79.1028V5.64859Z" fill="#FCE196"/>
<path d="M79.1028 0H73.4514V5.64859H79.1028V0Z" fill="black"/>
<path d="M73.4515 107.349H67.8V113H73.4515V107.349Z" fill="black"/>
<path d="M73.4515 101.7H67.8V107.349H73.4515V101.7Z" fill="#FCE196"/>
<path d="M73.4515 96.0514H67.8V101.7H73.4515V96.0514Z" fill="#FCE196"/>
<path d="M73.4515 90.4H67.8V96.0514H73.4515V90.4Z" fill="#FCE196"/>
<path d="M73.4515 84.7514H67.8V90.4H73.4515V84.7514Z" fill="#FCE196"/>
<path d="M73.4515 79.1H67.8V84.7514H73.4515V79.1Z" fill="#FCE196"/>
<path d="M73.4515 73.4486H67.8V79.0972H73.4515V73.4486Z" fill="#FCE196"/>
<path d="M73.4515 67.8H67.8V73.4486H73.4515V67.8Z" fill="#FCE196"/>
<path d="M73.4515 62.1486H67.8V67.8H73.4515V62.1486Z" fill="#FCE196"/>
<path d="M73.4515 56.5H67.8V62.1486H73.4515V56.5Z" fill="white"/>
<path d="M73.4515 50.8486H67.8V56.4972H73.4515V50.8486Z" fill="white"/>
<path d="M73.4515 45.2H67.8V50.8514H73.4515V45.2Z" fill="white"/>
<path d="M73.4515 39.5486H67.8V45.1972H73.4515V39.5486Z" fill="#FCE196"/>
<path d="M73.4515 33.9H67.8V39.5514H73.4515V33.9Z" fill="#FCE196"/>
<path d="M73.4515 28.2514H67.8V33.9H73.4515V28.2514Z" fill="#FCE196"/>
<path d="M73.4515 22.6H67.8V28.2514H73.4515V22.6Z" fill="#FCE196"/>
<path d="M73.4515 16.9486H67.8V22.6H73.4515V16.9486Z" fill="#FCE196"/>
<path d="M73.4515 11.3H67.8V16.9486H73.4515V11.3Z" fill="#FCE196"/>
<path d="M73.4515 5.64859H67.8V11.3H73.4515V5.64859Z" fill="#FCE196"/>
<path d="M73.4515 0H67.8V5.64859H73.4515V0Z" fill="black"/>
<path d="M67.8 107.349H62.1486V113H67.8V107.349Z" fill="black"/>
<path d="M67.8 101.7H62.1486V107.349H67.8V101.7Z" fill="#FCE196"/>
<path d="M67.8 96.0514H62.1486V101.7H67.8V96.0514Z" fill="#FCE196"/>
<path d="M67.8 90.4H62.1486V96.0514H67.8V90.4Z" fill="#FCE196"/>
<path d="M67.8 84.7514H62.1486V90.4H67.8V84.7514Z" fill="#FCE196"/>
<path d="M67.8 79.1H62.1486V84.7514H67.8V79.1Z" fill="#FCE196"/>
<path d="M67.8 73.4486H62.1486V79.0972H67.8V73.4486Z" fill="#FCE196"/>
<path d="M67.8 67.8H62.1486V73.4486H67.8V67.8Z" fill="#FCE196"/>
<path d="M67.8 62.1486H62.1486V67.8H67.8V62.1486Z" fill="white"/>
<path d="M67.8 56.5H62.1486V62.1486H67.8V56.5Z" fill="white"/>
<path d="M67.8 50.8486H62.1486V56.4972H67.8V50.8486Z" fill="white"/>
<path d="M67.8 45.2H62.1486V50.8514H67.8V45.2Z" fill="white"/>
<path d="M67.8 39.5486H62.1486V45.1972H67.8V39.5486Z" fill="white"/>
<path d="M67.8 33.9H62.1486V39.5514H67.8V33.9Z" fill="#FCE196"/>
<path d="M67.8 28.2514H62.1486V33.9H67.8V28.2514Z" fill="#FCE196"/>
<path d="M67.8 22.6H62.1486V28.2514H67.8V22.6Z" fill="#FCE196"/>
<path d="M67.8 16.9486H62.1486V22.6H67.8V16.9486Z" fill="#FCE196"/>
<path d="M67.8 11.3H62.1486V16.9486H67.8V11.3Z" fill="#FCE196"/>
<path d="M67.8 5.64859H62.1486V11.3H67.8V5.64859Z" fill="#FCE196"/>
<path d="M67.8 0H62.1486V5.64859H67.8V0Z" fill="black"/>
<path d="M62.1486 107.349H56.5V113H62.1486V107.349Z" fill="black"/>
<path d="M62.1486 101.7H56.5V107.349H62.1486V101.7Z" fill="#FCE196"/>
<path d="M62.1486 96.0514H56.5V101.7H62.1486V96.0514Z" fill="#FCE196"/>
<path d="M62.1486 90.4H56.5V96.0514H62.1486V90.4Z" fill="#FCE196"/>
<path d="M62.1486 84.7514H56.5V90.4H62.1486V84.7514Z" fill="#FCE196"/>
<path d="M62.1486 79.1H56.5V84.7514H62.1486V79.1Z" fill="#FCE196"/>
<path d="M62.1486 73.4486H56.5V79.0972H62.1486V73.4486Z" fill="#FCE196"/>
<path d="M62.1486 67.8H56.5V73.4486H62.1486V67.8Z" fill="#FCE196"/>
<path d="M62.1486 62.1486H56.5V67.8H62.1486V62.1486Z" fill="white"/>
<path d="M62.1486 56.5H56.5V62.1486H62.1486V56.5Z" fill="white"/>
<path d="M62.1486 50.8486H56.5V56.4972H62.1486V50.8486Z" fill="white"/>
<path d="M62.1486 45.2H56.5V50.8514H62.1486V45.2Z" fill="white"/>
<path d="M62.1486 39.5486H56.5V45.1972H62.1486V39.5486Z" fill="white"/>
<path d="M62.1486 33.9H56.5V39.5514H62.1486V33.9Z" fill="#FCE196"/>
<path d="M62.1486 28.2514H56.5V33.9H62.1486V28.2514Z" fill="#FCE196"/>
<path d="M62.1486 22.6H56.5V28.2514H62.1486V22.6Z" fill="#FCE196"/>
<path d="M62.1486 16.9486H56.5V22.6H62.1486V16.9486Z" fill="#FCE196"/>
<path d="M62.1486 11.3H56.5V16.9486H62.1486V11.3Z" fill="#FCE196"/>
<path d="M62.1486 5.64859H56.5V11.3H62.1486V5.64859Z" fill="#FCE196"/>
<path d="M62.1486 0H56.5V5.64859H62.1486V0Z" fill="black"/>
<path d="M56.5028 107.349H50.8514V113H56.5028V107.349Z" fill="black"/>
<path d="M56.5028 101.7H50.8514V107.349H56.5028V101.7Z" fill="#FCE196"/>
<path d="M56.5028 96.0514H50.8514V101.7H56.5028V96.0514Z" fill="#FCE196"/>
<path d="M56.5028 90.4H50.8514V96.0514H56.5028V90.4Z" fill="#FCE196"/>
<path d="M56.5028 84.7514H50.8514V90.4H56.5028V84.7514Z" fill="#FCE196"/>
<path d="M56.5028 79.1H50.8514V84.7514H56.5028V79.1Z" fill="#FCE196"/>
<path d="M56.5028 73.4486H50.8514V79.0972H56.5028V73.4486Z" fill="#FCE196"/>
<path d="M56.5028 67.8H50.8514V73.4486H56.5028V67.8Z" fill="white"/>
<path d="M56.5028 62.1486H50.8514V67.8H56.5028V62.1486Z" fill="white"/>
<path d="M56.5028 56.5H50.8514V62.1486H56.5028V56.5Z" fill="white"/>
<path d="M56.5028 50.8486H50.8514V56.4972H56.5028V50.8486Z" fill="white"/>
<path d="M56.5028 45.2H50.8514V50.8514H56.5028V45.2Z" fill="white"/>
<path d="M56.5028 39.5486H50.8514V45.1972H56.5028V39.5486Z" fill="white"/>
<path d="M56.5028 33.9H50.8514V39.5514H56.5028V33.9Z" fill="white"/>
<path d="M56.5028 28.2514H50.8514V33.9H56.5028V28.2514Z" fill="#FCE196"/>
<path d="M56.5028 22.6H50.8514V28.2514H56.5028V22.6Z" fill="#FCE196"/>
<path d="M56.5028 16.9486H50.8514V22.6H56.5028V16.9486Z" fill="#FCE196"/>
<path d="M56.5028 11.3H50.8514V16.9486H56.5028V11.3Z" fill="#FCE196"/>
<path d="M56.5028 5.64859H50.8514V11.3H56.5028V5.64859Z" fill="#FCE196"/>
<path d="M56.5028 0H50.8514V5.64859H56.5028V0Z" fill="black"/>
<path d="M50.8514 107.349H45.2V113H50.8514V107.349Z" fill="black"/>
<path d="M50.8514 101.7H45.2V107.349H50.8514V101.7Z" fill="#FCE196"/>
<path d="M50.8514 96.0514H45.2V101.7H50.8514V96.0514Z" fill="#FCE196"/>
<path d="M50.8514 90.4H45.2V96.0514H50.8514V90.4Z" fill="#FCE196"/>
<path d="M50.8514 84.7514H45.2V90.4H50.8514V84.7514Z" fill="#FCE196"/>
<path d="M50.8514 79.1H45.2V84.7514H50.8514V79.1Z" fill="#FCE196"/>
<path d="M50.8514 73.4486H45.2V79.0972H50.8514V73.4486Z" fill="white"/>
<path d="M50.8514 67.8H45.2V73.4486H50.8514V67.8Z" fill="white"/>
<path d="M50.8514 62.1486H45.2V67.8H50.8514V62.1486Z" fill="white"/>
<path d="M50.8514 56.5H45.2V62.1486H50.8514V56.5Z" fill="white"/>
<path d="M50.8514 50.8486H45.2V56.4972H50.8514V50.8486Z" fill="white"/>
<path d="M50.8514 45.2H45.2V50.8514H50.8514V45.2Z" fill="white"/>
<path d="M50.8514 39.5486H45.2V45.1972H50.8514V39.5486Z" fill="white"/>
<path d="M50.8514 33.9H45.2V39.5514H50.8514V33.9Z" fill="white"/>
<path d="M50.8514 28.2514H45.2V33.9H50.8514V28.2514Z" fill="white"/>
<path d="M50.8514 22.6H45.2V28.2514H50.8514V22.6Z" fill="#FCE196"/>
<path d="M50.8514 16.9486H45.2V22.6H50.8514V16.9486Z" fill="#FCE196"/>
<path d="M50.8514 11.3H45.2V16.9486H50.8514V11.3Z" fill="#FCE196"/>
<path d="M50.8514 5.64859H45.2V11.3H50.8514V5.64859Z" fill="#FCE196"/>
<path d="M50.8514 0H45.2V5.64859H50.8514V0Z" fill="black"/>
<path d="M45.2 107.349H39.5486V113H45.2V107.349Z" fill="black"/>
<path d="M45.2 101.7H39.5486V107.349H45.2V101.7Z" fill="#FCE196"/>
<path d="M45.2 96.0514H39.5486V101.7H45.2V96.0514Z" fill="#FCE196"/>
<path d="M45.2 90.4H39.5486V96.0514H45.2V90.4Z" fill="#FCE196"/>
<path d="M45.2 84.7514H39.5486V90.4H45.2V84.7514Z" fill="#FCE196"/>
<path d="M45.2 79.1H39.5486V84.7514H45.2V79.1Z" fill="#FCE196"/>
<path d="M45.2 73.4486H39.5486V79.0972H45.2V73.4486Z" fill="#FCE196"/>
<path d="M45.2 67.8H39.5486V73.4486H45.2V67.8Z" fill="#FCE196"/>
<path d="M45.2 62.1486H39.5486V67.8H45.2V62.1486Z" fill="#FCE196"/>
<path d="M45.2 56.5H39.5486V62.1486H45.2V56.5Z" fill="#FCE196"/>
<path d="M45.2 50.8486H39.5486V56.4972H45.2V50.8486Z" fill="#FCE196"/>
<path d="M45.2 45.2H39.5486V50.8514H45.2V45.2Z" fill="#FCE196"/>
<path d="M45.2 39.5486H39.5486V45.1972H45.2V39.5486Z" fill="#FCE196"/>
<path d="M45.2 33.9H39.5486V39.5514H45.2V33.9Z" fill="#FCE196"/>
<path d="M45.2 28.2514H39.5486V33.9H45.2V28.2514Z" fill="#FCE196"/>
<path d="M45.2 22.6H39.5486V28.2514H45.2V22.6Z" fill="#FCE196"/>
<path d="M45.2 16.9486H39.5486V22.6H45.2V16.9486Z" fill="#FCE196"/>
<path d="M45.2 11.3H39.5486V16.9486H45.2V11.3Z" fill="#FCE196"/>
<path d="M45.2 5.64859H39.5486V11.3H45.2V5.64859Z" fill="#FCE196"/>
<path d="M45.2 0H39.5486V5.64859H45.2V0Z" fill="black"/>
<path d="M39.5486 107.349H33.9V113H39.5486V107.349Z" fill="black"/>
<path d="M39.5486 101.7H33.9V107.349H39.5486V101.7Z" fill="#FCE196"/>
<path d="M39.5486 96.0514H33.9V101.7H39.5486V96.0514Z" fill="#FCE196"/>
<path d="M39.5486 90.4H33.9V96.0514H39.5486V90.4Z" fill="#FCE196"/>
<path d="M39.5486 84.7514H33.9V90.4H39.5486V84.7514Z" fill="#FCE196"/>
<path d="M39.5486 79.1H33.9V84.7514H39.5486V79.1Z" fill="#FCE196"/>
<path d="M39.5486 73.4486H33.9V79.0972H39.5486V73.4486Z" fill="#FCE196"/>
<path d="M39.5486 67.8H33.9V73.4486H39.5486V67.8Z" fill="#FCE196"/>
<path d="M39.5486 62.1486H33.9V67.8H39.5486V62.1486Z" fill="#FCE196"/>
<path d="M39.5486 56.5H33.9V62.1486H39.5486V56.5Z" fill="#FCE196"/>
<path d="M39.5486 50.8486H33.9V56.4972H39.5486V50.8486Z" fill="#FCE196"/>
<path d="M39.5486 45.2H33.9V50.8514H39.5486V45.2Z" fill="#FCE196"/>
<path d="M39.5486 39.5486H33.9V45.1972H39.5486V39.5486Z" fill="#FCE196"/>
<path d="M39.5486 33.9H33.9V39.5514H39.5486V33.9Z" fill="#FCE196"/>
<path d="M39.5486 28.2514H33.9V33.9H39.5486V28.2514Z" fill="#FCE196"/>
<path d="M39.5486 22.6H33.9V28.2514H39.5486V22.6Z" fill="#FCE196"/>
<path d="M39.5486 16.9486H33.9V22.6H39.5486V16.9486Z" fill="#FCE196"/>
<path d="M39.5486 11.3H33.9V16.9486H39.5486V11.3Z" fill="#FCE196"/>
<path d="M39.5486 5.64859H33.9V11.3H39.5486V5.64859Z" fill="#FCE196"/>
<path d="M39.5486 0H33.9V5.64859H39.5486V0Z" fill="black"/>
<path d="M33.9029 107.349H28.2515V113H33.9029V107.349Z" fill="black"/>
<path d="M33.9029 101.7H28.2515V107.349H33.9029V101.7Z" fill="#FCE196"/>
<path d="M33.9029 96.0514H28.2515V101.7H33.9029V96.0514Z" fill="#FCE196"/>
<path d="M33.9029 90.4H28.2515V96.0514H33.9029V90.4Z" fill="#FCE196"/>
<path d="M33.9029 84.7514H28.2515V90.4H33.9029V84.7514Z" fill="#FCE196"/>
<path d="M33.9029 79.1H28.2515V84.7514H33.9029V79.1Z" fill="#FCE196"/>
<path d="M33.9029 73.4486H28.2515V79.0972H33.9029V73.4486Z" fill="#FCE196"/>
<path d="M33.9029 67.8H28.2515V73.4486H33.9029V67.8Z" fill="#FCE196"/>
<path d="M33.9029 62.1486H28.2515V67.8H33.9029V62.1486Z" fill="#FCE196"/>
<path d="M33.9029 56.5H28.2515V62.1486H33.9029V56.5Z" fill="#FCE196"/>
<path d="M33.9029 50.8486H28.2515V56.4972H33.9029V50.8486Z" fill="#FCE196"/>
<path d="M33.9029 45.2H28.2515V50.8514H33.9029V45.2Z" fill="#FCE196"/>
<path d="M33.9029 39.5486H28.2515V45.1972H33.9029V39.5486Z" fill="#FCE196"/>
<path d="M33.9029 33.9H28.2515V39.5514H33.9029V33.9Z" fill="#FCE196"/>
<path d="M33.9029 28.2514H28.2515V33.9H33.9029V28.2514Z" fill="#FCE196"/>
<path d="M33.9029 22.6H28.2515V28.2514H33.9029V22.6Z" fill="#FCE196"/>
<path d="M33.9029 16.9486H28.2515V22.6H33.9029V16.9486Z" fill="#FCE196"/>
<path d="M33.9029 11.3H28.2515V16.9486H33.9029V11.3Z" fill="#FCE196"/>
<path d="M33.9029 5.64859H28.2515V11.3H33.9029V5.64859Z" fill="#FCE196"/>
<path d="M33.9029 0H28.2515V5.64859H33.9029V0Z" fill="black"/>
<path d="M28.2486 107.349H22.6V113H28.2486V107.349Z" fill="black"/>
<path d="M28.2486 101.7H22.6V107.349H28.2486V101.7Z" fill="#FCE196"/>
<path d="M28.2486 96.0514H22.6V101.7H28.2486V96.0514Z" fill="#FCE196"/>
<path d="M28.2486 90.4H22.6V96.0514H28.2486V90.4Z" fill="#FCE196"/>
<path d="M28.2486 84.7514H22.6V90.4H28.2486V84.7514Z" fill="#FCE196"/>
<path d="M28.2486 79.1H22.6V84.7514H28.2486V79.1Z" fill="#FCE196"/>
<path d="M28.2486 73.4486H22.6V79.0972H28.2486V73.4486Z" fill="#FCE196"/>
<path d="M28.2486 67.8H22.6V73.4486H28.2486V67.8Z" fill="#FCE196"/>
<path d="M28.2486 62.1486H22.6V67.8H28.2486V62.1486Z" fill="#FCE196"/>
<path d="M28.2486 56.5H22.6V62.1486H28.2486V56.5Z" fill="#FCE196"/>
<path d="M28.2486 50.8486H22.6V56.4972H28.2486V50.8486Z" fill="#FCE196"/>
<path d="M28.2486 45.2H22.6V50.8514H28.2486V45.2Z" fill="#FCE196"/>
<path d="M28.2486 39.5486H22.6V45.1972H28.2486V39.5486Z" fill="#FCE196"/>
<path d="M28.2486 33.9H22.6V39.5514H28.2486V33.9Z" fill="#FCE196"/>
<path d="M28.2486 28.2514H22.6V33.9H28.2486V28.2514Z" fill="#FCE196"/>
<path d="M28.2486 22.6H22.6V28.2514H28.2486V22.6Z" fill="#FCE196"/>
<path d="M28.2486 16.9486H22.6V22.6H28.2486V16.9486Z" fill="#FCE196"/>
<path d="M28.2486 11.3H22.6V16.9486H28.2486V11.3Z" fill="#FCE196"/>
<path d="M28.2486 5.64859H22.6V11.3H28.2486V5.64859Z" fill="#FCE196"/>
<path d="M28.2486 0H22.6V5.64859H28.2486V0Z" fill="black"/>
<path d="M22.6028 101.7H16.9514V107.349H22.6028V101.7Z" fill="black"/>
<path d="M22.6028 96.0514H16.9514V101.7H22.6028V96.0514Z" fill="#FCE196"/>
<path d="M22.6028 90.4H16.9514V96.0514H22.6028V90.4Z" fill="#FCE196"/>
<path d="M22.6028 84.7514H16.9514V90.4H22.6028V84.7514Z" fill="#FCE196"/>
<path d="M22.6028 79.1H16.9514V84.7514H22.6028V79.1Z" fill="#FCE196"/>
<path d="M22.6028 73.4486H16.9514V79.0972H22.6028V73.4486Z" fill="#FCE196"/>
<path d="M22.6028 67.8H16.9514V73.4486H22.6028V67.8Z" fill="#FCE196"/>
<path d="M22.6028 62.1486H16.9514V67.8H22.6028V62.1486Z" fill="#FCE196"/>
<path d="M22.6028 56.5H16.9514V62.1486H22.6028V56.5Z" fill="#FCE196"/>
<path d="M22.6028 50.8486H16.9514V56.4972H22.6028V50.8486Z" fill="#FCE196"/>
<path d="M22.6028 45.2H16.9514V50.8514H22.6028V45.2Z" fill="#FCE196"/>
<path d="M22.6028 39.5486H16.9514V45.1972H22.6028V39.5486Z" fill="#FCE196"/>
<path d="M22.6028 33.9H16.9514V39.5514H22.6028V33.9Z" fill="#FCE196"/>
<path d="M22.6028 28.2514H16.9514V33.9H22.6028V28.2514Z" fill="#FCE196"/>
<path d="M22.6028 22.6H16.9514V28.2514H22.6028V22.6Z" fill="#FCE196"/>
<path d="M22.6028 16.9486H16.9514V22.6H22.6028V16.9486Z" fill="#FCE196"/>
<path d="M22.6028 11.3H16.9514V16.9486H22.6028V11.3Z" fill="#FCE196"/>
<path d="M22.6028 5.64859H16.9514V11.3H22.6028V5.64859Z" fill="black"/>
<path d="M16.9486 96.0514H11.3V101.7H16.9486V96.0514Z" fill="black"/>
<path d="M16.9486 90.4H11.3V96.0514H16.9486V90.4Z" fill="#FCE196"/>
<path d="M16.9486 84.7514H11.3V90.4H16.9486V84.7514Z" fill="#FCE196"/>
<path d="M16.9486 79.1H11.3V84.7514H16.9486V79.1Z" fill="#FCE196"/>
<path d="M16.9486 73.4486H11.3V79.0972H16.9486V73.4486Z" fill="#FCE196"/>
<path d="M16.9486 67.8H11.3V73.4486H16.9486V67.8Z" fill="#FCE196"/>
<path d="M16.9486 62.1486H11.3V67.8H16.9486V62.1486Z" fill="#FCE196"/>
<path d="M16.9486 56.5H11.3V62.1486H16.9486V56.5Z" fill="#FCE196"/>
<path d="M16.9486 50.8486H11.3V56.4972H16.9486V50.8486Z" fill="#FCE196"/>
<path d="M16.9486 45.2H11.3V50.8514H16.9486V45.2Z" fill="#FCE196"/>
<path d="M16.9486 39.5486H11.3V45.1972H16.9486V39.5486Z" fill="#FCE196"/>
<path d="M16.9486 33.9H11.3V39.5514H16.9486V33.9Z" fill="#FCE196"/>
<path d="M16.9486 28.2514H11.3V33.9H16.9486V28.2514Z" fill="#FCE196"/>
<path d="M16.9486 22.6H11.3V28.2514H16.9486V22.6Z" fill="#FCE196"/>
<path d="M16.9486 16.9486H11.3V22.6H16.9486V16.9486Z" fill="#FCE196"/>
<path d="M16.9486 11.3H11.3V16.9486H16.9486V11.3Z" fill="black"/>
<path d="M11.3028 90.4H5.65137V96.0514H11.3028V90.4Z" fill="black"/>
<path d="M11.3028 84.7514H5.65137V90.4H11.3028V84.7514Z" fill="#FCE196"/>
<path d="M11.3028 79.1H5.65137V84.7514H11.3028V79.1Z" fill="#FCE196"/>
<path d="M11.3028 73.4486H5.65137V79.0972H11.3028V73.4486Z" fill="#FCE196"/>
<path d="M11.3028 67.8H5.65137V73.4486H11.3028V67.8Z" fill="#FCE196"/>
<path d="M11.3028 62.1486H5.65137V67.8H11.3028V62.1486Z" fill="#FCE196"/>
<path d="M11.3028 56.5H5.65137V62.1486H11.3028V56.5Z" fill="#FCE196"/>
<path d="M11.3028 50.8486H5.65137V56.4972H11.3028V50.8486Z" fill="#FCE196"/>
<path d="M11.3028 45.2H5.65137V50.8514H11.3028V45.2Z" fill="#FCE196"/>
<path d="M11.3028 39.5486H5.65137V45.1972H11.3028V39.5486Z" fill="#FCE196"/>
<path d="M11.3028 33.9H5.65137V39.5514H11.3028V33.9Z" fill="#FCE196"/>
<path d="M11.3028 28.2514H5.65137V33.9H11.3028V28.2514Z" fill="#FCE196"/>
<path d="M11.3028 22.6H5.65137V28.2514H11.3028V22.6Z" fill="#FCE196"/>
<path d="M11.3028 16.9486H5.65137V22.6H11.3028V16.9486Z" fill="black"/>
<path d="M5.65141 84.7514H0V90.4H5.65141V84.7514Z" fill="black"/>
<path d="M5.65141 79.1H0V84.7514H5.65141V79.1Z" fill="black"/>
<path d="M5.65141 73.4486H0V79.0972H5.65141V73.4486Z" fill="black"/>
<path d="M5.65141 67.8H0V73.4486H5.65141V67.8Z" fill="black"/>
<path d="M5.65141 62.1486H0V67.8H5.65141V62.1486Z" fill="black"/>
<path d="M5.65141 56.5H0V62.1486H5.65141V56.5Z" fill="black"/>
<path d="M5.65141 50.8486H0V56.4972H5.65141V50.8486Z" fill="black"/>
<path d="M5.65141 45.2H0V50.8514H5.65141V45.2Z" fill="black"/>
<path d="M5.65141 39.5486H0V45.1972H5.65141V39.5486Z" fill="black"/>
<path d="M5.65141 33.9H0V39.5514H5.65141V33.9Z" fill="black"/>
<path d="M5.65141 28.2514H0V33.9H5.65141V28.2514Z" fill="black"/>
<path d="M5.65141 22.6H0V28.2514H5.65141V22.6Z" fill="black"/>
</g>
<defs>
<clipPath id="clip0">
<rect width="113" height="113" fill="white"/>
</clipPath>
</defs>
</svg>
